/* XPM */
static char * textures_xpm[] = {
"64 64 639 2",
"  	c #FFFFFF",
". 	c #FCFFFD",
"+ 	c #FDF3FA",
"@ 	c #FCE4F0",
"# 	c #FCE9F2",
"$ 	c #FDFCFE",
"% 	c #FFFEFE",
"& 	c #FEFEFE",
"* 	c #FEF1F6",
"= 	c #FAB4D8",
"- 	c #F4B5D7",
"; 	c #F3AFD3",
"> 	c #F9C6E2",
", 	c #FCF9FC",
"' 	c #FCFEFE",
") 	c #FFFEFF",
"! 	c #FEFFFE",
"~ 	c #000000",
"{ 	c #DEA8C8",
"] 	c #F4B5D6",
"^ 	c #FBFEFD",
"/ 	c #FEFFFF",
"( 	c #FEFEFF",
"_ 	c #FFFDFE",
": 	c #FAFDFE",
"< 	c #FBF6FA",
"[ 	c #FBF8FC",
"} 	c #FDFEFE",
"| 	c #D09CB8",
"1 	c #BB8DA7",
"2 	c #FBFDFD",
"3 	c #FEFEFD",
"4 	c #FDFEFB",
"5 	c #FDFFFC",
"6 	c #FDFFFE",
"7 	c #FEFDFD",
"8 	c #FDFEFD",
"9 	c #FBDFF0",
"0 	c #F6B5D9",
"a 	c #F6B0D3",
"b 	c #FDF4F8",
"c 	c #FCFCFC",
"d 	c #FAE9F3",
"e 	c #F6B4D7",
"f 	c #F4B2D6",
"g 	c #FCFBFD",
"h 	c #FCFAFB",
"i 	c #FCF3F8",
"j 	c #FBEFF7",
"k 	c #FCE8F3",
"l 	c #FEE4F3",
"m 	c #FCE1F0",
"n 	c #FBD9EB",
"o 	c #F8D2E7",
"p 	c #FAE6F2",
"q 	c #FBFAF9",
"r 	c #FDF5FA",
"s 	c #F3B0D3",
"t 	c #ECB3D1",
"u 	c #614B56",
"v 	c #FDF9FA",
"w 	c #FBF8FA",
"x 	c #F4B4D5",
"y 	c #F6B4D5",
"z 	c #FBEBF6",
"A 	c #896878",
"B 	c #F3B3D5",
"C 	c #F6B4D6",
"D 	c #F6B6D8",
"E 	c #F7B5D8",
"F 	c #F7B8D8",
"G 	c #F5AFD5",
"H 	c #F7AED4",
"I 	c #F9B6D9",
"J 	c #F6B2D6",
"K 	c #F3AFD2",
"L 	c #F5B7D8",
"M 	c #FBE8F1",
"N 	c #FDFDFC",
"O 	c #FCEEF6",
"P 	c #F8B2D7",
"Q 	c #F5B5D8",
"R 	c #FAFEFE",
"S 	c #89687B",
"T 	c #DFA8C5",
"U 	c #F3A6D3",
"V 	c #F2B4D7",
"W 	c #CE9CB7",
"X 	c #F5B3D8",
"Y 	c #634B57",
"Z 	c #F5ACD5",
"` 	c #FBE7F1",
" .	c #FEF6F9",
"..	c #F7B2D8",
"+.	c #F7B7D9",
"@.	c #FAF3FA",
"#.	c #F2A9D1",
"$.	c #F2B2D7",
"%.	c #EDB3D2",
"&.	c #F8B8D9",
"*.	c #F0B3D2",
"=.	c #F6B7DB",
"-.	c #F6AED5",
";.	c #F2ADD1",
">.	c #634B58",
",.	c #F6B3D7",
"'.	c #FDF6F8",
").	c #FCFEFC",
"!.	c #A57D91",
"~.	c #F6AFD5",
"{.	c #F3B7D7",
"].	c #BBBDBF",
"^.	c #E8E3E7",
"/.	c #F6CCE1",
"(.	c #F2B7D6",
"_.	c #F5AFD2",
":.	c #866878",
"<.	c #E7B3CF",
"[.	c #D692B6",
"}.	c #614B57",
"|.	c #F4B3D5",
"1.	c #FDFFFD",
"2.	c #FDFEFF",
"3.	c #FBF5FA",
"4.	c #A27D91",
"5.	c #BC8DA5",
"6.	c #F4A8CF",
"7.	c #F4B4D6",
"8.	c #F3B2D4",
"9.	c #9A7D8E",
"0.	c #383738",
"a.	c #B7B8B9",
"b.	c #FBDCED",
"c.	c #F6B5D7",
"d.	c #F6B2D5",
"e.	c #DC9CBF",
"f.	c #D78BB2",
"g.	c #D990B5",
"h.	c #876879",
"i.	c #FEFDFE",
"j.	c #FCF0F5",
"k.	c #F2B3D1",
"l.	c #F6B2DA",
"m.	c #F6B8D8",
"n.	c #F5B5D7",
"o.	c #E0C6D7",
"p.	c #D2CFD1",
"q.	c #FBE8F2",
"r.	c #F4AFD2",
"s.	c #E5CBDA",
"t.	c #EFD4E5",
"u.	c #F4B0D5",
"v.	c #F4B6D4",
"w.	c #876878",
"x.	c #FDFFFF",
"y.	c #FDF6FB",
"z.	c #EEB3D1",
"A.	c #F1B3D5",
"B.	c #F0B8D6",
"C.	c #796D76",
"D.	c #777675",
"E.	c #FDFAFC",
"F.	c #F3B7D5",
"G.	c #F7B4D9",
"H.	c #F6B7DA",
"I.	c #F4ABD1",
"J.	c #FDFBFD",
"K.	c #B98DA4",
"L.	c #F3B3D1",
"M.	c #E5D2DE",
"N.	c #E2E1E1",
"O.	c #FAE1EF",
"P.	c #F4B4D7",
"Q.	c #F3AAD1",
"R.	c #F3AED2",
"S.	c #FAECF2",
"T.	c #FAE0ED",
"U.	c #F7B3D6",
"V.	c #F3ADD0",
"W.	c #F1B8D6",
"X.	c #F3ADD1",
"Y.	c #F6ACD3",
"Z.	c #F0AAD1",
"`.	c #F5A8D2",
" +	c #F9D9EB",
".+	c #FCF9F9",
"++	c #F9B8DD",
"@+	c #EFB3D2",
"#+	c #F2ACD1",
"$+	c #F8D8ED",
"%+	c #FBFCFC",
"&+	c #FDFDFD",
"*+	c #A6959D",
"=+	c #DEA8C5",
"-+	c #F1B5D8",
";+	c #FBE2F1",
">+	c #FBFCFE",
",+	c #FBFCFD",
"'+	c #CE9CB6",
")+	c #F5AED2",
"!+	c #F8C5DE",
"~+	c #FBF0F6",
"{+	c #FDFEFC",
"]+	c #FDFDFE",
"^+	c #FEFFFD",
"/+	c #FCF8FA",
"(+	c #F4B2D5",
"_+	c #F5ABD4",
":+	c #F5AED6",
"<+	c #F2DEE9",
"[+	c #FCFCFD",
"}+	c #FBEDF3",
"|+	c #F5AFD3",
"1+	c #E1A8C4",
"2+	c #FDFAFE",
"3+	c #FFFEFD",
"4+	c #FCE6F1",
"5+	c #F6B3D6",
"6+	c #644B58",
"7+	c #F5B3D5",
"8+	c #FEF5FB",
"9+	c #FCE5F0",
"0+	c #F7B6D8",
"a+	c #F7B5D7",
"b+	c #BEABB4",
"c+	c #FBFEFE",
"d+	c #F7B0D5",
"e+	c #8A6879",
"f+	c #F795BF",
"g+	c #DEA8C3",
"h+	c #A47D92",
"i+	c #FCFEFD",
"j+	c #FDFDFF",
"k+	c #FDEFF7",
"l+	c #F6B5D5",
"m+	c #F471A9",
"n+	c #886879",
"o+	c #FDF6FA",
"p+	c #F6B1D4",
"q+	c #F9A3CA",
"r+	c #F473A9",
"s+	c #F595C0",
"t+	c #F68FBD",
"u+	c #FBFDFC",
"v+	c #FDFCFC",
"w+	c #F385B4",
"x+	c #F565A1",
"y+	c #F59DC6",
"z+	c #F7B7D6",
"A+	c #E2A8C4",
"B+	c #F3AACD",
"C+	c #F47AAC",
"D+	c #F488B6",
"E+	c #F5B7D7",
"F+	c #A7959F",
"G+	c #A8959F",
"H+	c #F3AED4",
"I+	c #F8AED2",
"J+	c #F685B3",
"K+	c #F474A8",
"L+	c #F379AB",
"M+	c #F690BB",
"N+	c #F6B2D2",
"O+	c #F4B0D4",
"P+	c #FEF1F9",
"Q+	c #FCFAFC",
"R+	c #F8B3D9",
"S+	c #F7B6D7",
"T+	c #FAC9E4",
"U+	c #FAE6F0",
"V+	c #F5AED4",
"W+	c #A37D90",
"X+	c #F8F4F8",
"Y+	c #F7D4E3",
"Z+	c #F5A8CF",
"`+	c #EFB3D1",
" @	c #F5A4C7",
".@	c #F8E3EA",
"+@	c #FCFDFC",
"@@	c #FAF8FA",
"#@	c #F6948C",
"$@	c #F4747D",
"%@	c #F3A5CB",
"&@	c #F1A0BB",
"*@	c #CD4946",
"=@	c #F7A399",
"-@	c #FBFDFE",
";@	c #F7CFC9",
">@	c #F44132",
",@	c #DE6B6C",
"'@	c #F494AC",
")@	c #F5A7D0",
"!@	c #F3B2D6",
"~@	c #B98DA5",
"{@	c #896879",
"]@	c #F5ABD2",
"^@	c #F99FBF",
"/@	c #F48798",
"(@	c #F44032",
"_@	c #F9D4D3",
":@	c #FCFDFF",
"<@	c #FDF9FE",
"[@	c #FCF2F9",
"}@	c #F5999A",
"|@	c #F4564C",
"1@	c #BA5758",
"2@	c #FA8A99",
"3@	c #F497B3",
"4@	c #F2A0C4",
"5@	c #F3A4C6",
"6@	c #F3A7CE",
"7@	c #F5A7CC",
"8@	c #F4A1C3",
"9@	c #F29DB9",
"0@	c #F48C9F",
"a@	c #F87C82",
"b@	c #F2534B",
"c@	c #F87974",
"d@	c #FEF3F7",
"e@	c #FEFBFE",
"f@	c #FDF1F8",
"g@	c #FCDFF0",
"h@	c #FBD3EB",
"i@	c #FACBDD",
"j@	c #F496A2",
"k@	c #F43C2F",
"l@	c #F7B2BD",
"m@	c #FBD6ED",
"n@	c #FCE2EE",
"o@	c #FDF4F9",
"p@	c #FEF9FD",
"q@	c #FADCEC",
"r@	c #FBDAED",
"s@	c #FCEDF6",
"t@	c #FEEAF5",
"u@	c #FCD8EC",
"v@	c #F8D1E6",
"w@	c #F5DAE9",
"x@	c #F9E7F2",
"y@	c #FB8480",
"z@	c #F15345",
"A@	c #F75044",
"B@	c #F7817B",
"C@	c #FAE7F1",
"D@	c #FAD9ED",
"E@	c #F9D2E8",
"F@	c #FBD9EC",
"G@	c #FDEDF6",
"H@	c #FCEAF5",
"I@	c #F9D8EA",
"J@	c #FADCED",
"K@	c #FFFCFF",
"L@	c #FCF2F6",
"M@	c #FAD0E7",
"N@	c #FAD2E6",
"O@	c #F8E2ED",
"P@	c #FCF5F7",
"Q@	c #FCFBFA",
"R@	c #FBE7E4",
"S@	c #F54436",
"T@	c #F7453A",
"U@	c #FAEBE3",
"V@	c #FCF1F6",
"W@	c #FBDFED",
"X@	c #FBD2E7",
"Y@	c #FACFE6",
"Z@	c #F8DEE9",
"`@	c #FCF3F7",
" #	c #F7E3EF",
".#	c #FCD3EA",
"+#	c #F9CFE4",
"@#	c #FCECF5",
"##	c #FAFDFD",
"$#	c #F8BDB7",
"%#	c #F74238",
"&#	c #F33F31",
"*#	c #F7C1BB",
"=#	c #FAFDFC",
"-#	c #FDFBFC",
";#	c #FCE6F2",
">#	c #FACEE5",
",#	c #FBD1E7",
"'#	c #FDFCFD",
")#	c #FDDFEE",
"!#	c #FEEAF6",
"~#	c #F9DCEA",
"{#	c #FCFBFC",
"]#	c #FAFCFA",
"^#	c #F8867D",
"/#	c #F6564C",
"(#	c #F44F44",
"_#	c #F78784",
":#	c #FDF8FC",
"<#	c #FADAE9",
"[#	c #FCECF7",
"}#	c #F8DEEB",
"|#	c #FBF2F1",
"1#	c #F34E45",
"2#	c #62211C",
"3#	c #FCF7F4",
"4#	c #FDF8FA",
"5#	c #FDF6F9",
"6#	c #FCD9D7",
"7#	c #F53D31",
"8#	c #F43D30",
"9#	c #FDE1DC",
"0#	c #FEFEFC",
"a#	c #FCF2F8",
"b#	c #F8D5E6",
"c#	c #F9D3E5",
"d#	c #FDEEF6",
"e#	c #F7C0BA",
"f#	c #F84639",
"g#	c #F43F31",
"h#	c #F8C4C2",
"i#	c #FCF6FB",
"j#	c #FCF4FB",
"k#	c #FCE9F3",
"l#	c #FBD7EA",
"m#	c #FBDCEE",
"n#	c #FBDFEC",
"o#	c #F89C94",
"p#	c #F45144",
"q#	c #F74C40",
"r#	c #F8A6A2",
"s#	c #F9E8F3",
"t#	c #FAD5E9",
"u#	c #FDDFEF",
"v#	c #F8D7EB",
"w#	c #FBDAEB",
"x#	c #CE4941",
"y#	c #F6564B",
"z#	c #F7847A",
"A#	c #FBFCFA",
"B#	c #FFF9FE",
"C#	c #FBDDED",
"D#	c #F9D4E6",
"E#	c #F8D3E6",
"F#	c #FADDEC",
"G#	c #FBD9E5",
"H#	c #F14C49",
"I#	c #883029",
"J#	c #FEF6F4",
"K#	c #FCFFFE",
"L#	c #FEFCFE",
"M#	c #FEFAFE",
"N#	c #FDFAFD",
"O#	c #FBFCFB",
"P#	c #FBE7E2",
"Q#	c #F53F34",
"R#	c #F43C33",
"S#	c #FCEEEC",
"T#	c #FDFDFB",
"U#	c #FAD9D3",
"V#	c #F53A2E",
"W#	c #F13428",
"X#	c #FCE3DD",
"Y#	c #FFFDFC",
"Z#	c #F8C0BF",
"`#	c #F74333",
" $	c #F43F2F",
".$	c #FBCDC5",
"+$	c #F5B2AC",
"@$	c #F7372B",
"#$	c #F74537",
"$$	c #F54839",
"%$	c #F6483A",
"&$	c #F64A3B",
"*$	c #F44A3E",
"=$	c #F64C43",
"-$	c #F74F47",
";$	c #F85146",
">$	c #F55246",
",$	c #F75549",
"'$	c #F6554A",
")$	c #F8574B",
"!$	c #F65449",
"~$	c #BB423A",
"{$	c #DE4F46",
"]$	c #EF554A",
"^$	c #DF5146",
"/$	c #E05146",
"($	c #E04F48",
"_$	c #F7554C",
":$	c #F6554C",
"<$	c #F5574A",
"[$	c #F85148",
"}$	c #F45145",
"|$	c #F44B3C",
"1$	c #F53F2D",
"2$	c #F6C1B5",
"3$	c #FCFDFE",
"4$	c #F8F2EC",
"5$	c #F9D4D2",
"6$	c #F8D0D0",
"7$	c #FAD0D0",
"8$	c #F9D1D0",
"9$	c #FBD1D1",
"0$	c #FDCED0",
"a$	c #F9B7BE",
"b$	c #FAB8BC",
"c$	c #FACAC5",
"d$	c #F9C1BD",
"e$	c #FABFBC",
"f$	c #F9C0BD",
"g$	c #F8BBB8",
"h$	c #ECADAA",
"i$	c #E6ACA7",
"j$	c #EFB4AE",
"k$	c #F7BEBD",
"l$	c #FBBEBE",
"m$	c #F7A6B2",
"n$	c #F7ACB3",
"o$	c #F7BDBB",
"p$	c #F9BFBE",
"q$	c #FBC1C0",
"r$	c #FDC9C6",
"s$	c #FCCCC8",
"t$	c #FBD2CE",
"u$	c #FAD7D4",
"v$	c #F8F3F1",
"w$	c #F8D9EA",
"x$	c #FAE4F0",
"y$	c #FBFDFB",
"z$	c #FBE3F1",
"A$	c #FFFFFD",
"B$	c #F9DAEA",
"C$	c #FBE5F1",
"D$	c #FFFDFF",
"E$	c #FCFDFB",
"F$	c #FCDCED",
"G$	c #FAE3EF",
"H$	c #FAF7F9",
"I$	c #F8D7E8",
"J$	c #F8E0EB",
"K$	c #EFEFF0",
"L$	c #EAEAEA",
"M$	c #E7E7E7",
"N$	c #E3E4E4",
"O$	c #E3E4E3",
"P$	c #E3E3E3",
"Q$	c #E3E4E2",
"R$	c #E5E5E5",
"S$	c #F8D6E7",
"T$	c #F2DBE8",
"U$	c #ECEDEE",
"V$	c #EFF0F0",
"W$	c #F4F5F4",
"X$	c #F8F8F8",
"Y$	c #EEEEEE",
"Z$	c #DBDCDC",
"`$	c #D0D2D1",
" %	c #C6CAC8",
".%	c #CAC3C6",
"+%	c #F8D1E4",
"@%	c #DFCAD3",
"#%	c #B9BCBE",
"$%	c #B0AFB0",
"%%	c #A8AAA9",
"&%	c #A7A8A8",
"*%	c #B8BAB9",
"=%	c #C2C4C3",
"-%	c #C0C2C1",
";%	c #C0C1C0",
">%	c #C3C1C1",
",%	c #F1D0E0",
"'%	c #E1CAD6",
")%	c #BBBFBE",
"!%	c #B0B2B1",
"~%	c #AAABAB",
"{%	c #AAACAB",
"]%	c #BCBEBD",
"^%	c #CECECE",
"/%	c #DBDBDB",
"(%	c #E9E9E9",
"_%	c #F7F7F7",
":%	c #FBFBFB",
"<%	c #CDCDCD",
"[%	c #C1C1C1",
"}%	c #BFC1C0",
"|%	c #B3B2B3",
"1%	c #7F727A",
"2%	c #453F42",
"3%	c #212324",
"4%	c #131414",
"5%	c #080A09",
"6%	c #070908",
"7%	c #363737",
"8%	c #B8B7B7",
"9%	c #7B7176",
"0%	c #4C4448",
"a%	c #222422",
"b%	c #141514",
"c%	c #060807",
"d%	c #2E2F2F",
"e%	c #B5B6B6",
"f%	c #C0C0C0",
"g%	c #C5C5C5",
"h%	c #E4E4E4",
"i%	c #C2C2C2",
"j%	c #BCBCBC",
"k%	c #808080",
"l%	c #696969",
"m%	c #626262",
"n%	c #5D5E5D",
"o%	c #575958",
"p%	c #575857",
"q%	c #838584",
"r%	c #C1C3C2",
"s%	c #818382",
"t%	c #6A6C6B",
"u%	c #5B5D5C",
"v%	c #595959",
"w%	c #7E7E7E",
"x%	c #BDBDBD",
"y%	c #C3C3C3",
"z%	c #C7C7C7",
"A%	c #D6D6D6",
"B%	c #F2F2F2",
"C%	c #F1F1F1",
"D%	c #E1E1E1",
"E%	c #DDDDDD",
"F%	c #D5D5D5",
"G%	c #D0D0D0",
"H%	c #CBCDCC",
"I%	c #C8CAC9",
"J%	c #C4C6C5",
"K%	c #C7C9C8",
"L%	c #C5C7C6",
"M%	c #C6C8C7",
"N%	c #C9CBCA",
"O%	c #CCCECD",
"P%	c #CFD1D0",
"Q%	c #D1D2D2",
"R%	c #D5D7D6",
"S%	c #DFDFDF",
"T%	c #EDEDED",
"U%	c #F6F6F6",
"V%	c #FCFDFD",
"                                                                                                                                ",
"                                                                                                                                ",
"                                                                                                                                ",
"                                                                                                                                ",
"                                                      . + @ # $ % &                                                             ",
"                                                      * = - ; > , '                                                             ",
"                                          ) ! )       ~ { ~ ~ ] ~ ^                   / / ) (                                   ",
"                                        _ : < [ $ } ( ~ | ~ ~ ~ 1 2     / ( & 3 % 4 5 6 ( % 7 8                                 ",
"                                        } 9 0 a ~ b c d e ~ ~ ~ f g !   } h i j k l m n o o p q                                 ",
"                                        r s ~ ~ t u v w x ~ ~ ~ y z ~ ~ A B C D E F G H I J K L M N                             ",
"                                        O P ~ ~ ~ Q n R ~ S ~ T U V W ~ ~ ~ ~ ~ ~ ~ X ~ ~ ~ ~ Y Z `                             ",
"                                         ...~ ~ ~ ~ +.@.~ #.$.%.~ ~ ~ &.*.=.-.~ ~ ~ ;.~ ~ ~ ~ ~ >.,.'.8 /                       ",
"                                        ).~ !.~ ~ ~ -.~.- ~ ~ ~ ~ ~ ~ {.].^./.(.~ ~ _.~ :.<.~ [.}.|.~ 1.2.                      ",
"                                        % 3.4.~ ~ 5.6.4.~ ~ 7.~ 8.>.~ 9.0.a.b.c.~ ~ d.~ e.f.~ g.~ h.~ i.(                       ",
"                                        & R j.k.l.m.~ ~ ~ n.o.p.q.; ~ r.s.t.u.~ ~ ~ >.v.~ ~ ~ ~ ~ ~ w.i./                       ",
"                                        x.& y.z.A.~ ~ ~ ~ B.C.D.E.F.~ ~ G.H.~ ~ ~ ~ ~ I.~ ~ ~ ~ ~ W ~ ( }                       ",
"                                        3 J.~ K.~ ~ ~ ~ ~ L.M.N.O.P.~ ~ ~ ~ ~ ~ ~ ~ ~ ~ Q.~ ~ ~ ~ R.S.^ )                       ",
"                                        i.T.U.~ ~ ~ ~ ~ ~ ~ V.W.8.~ ~ ~ ~ ~ ~ ~ ~ ~ ~ ~ ~ X.Y.Z.`. +} } )                       ",
"                                    &   .+++~ ~ ~ ~ ~ ~ ~ ~ ~ ~ ~ ~ ~ ~ ~ ~ ~ ~ ~ ~ ~ ~ ~ ~ @+#+$+%+% )                         ",
"                                      &+*+=+~ ~ ~ ~ ~ ~ ~ ~ ~ ~ ~ ~ ~ ~ ~ ~ ~ ~ ~ ~ ~ ~ ~ -+; ;+>+}                             ",
"                                    & ,+~ ~ ~ ~ ~ ~ 5.~ ~ ~ ~ ~ ~ ~ ~ ~ ~ ~ ~ ~ ~ ~ ~ '+)+!+~+{+! ]+                            ",
"                                    ^+/+(+~ ~ ~ ~ ~ ~ ~ ~ ~ ~ ~ ~ ~ ~ ~ ~ ~ ~ ~ ~ _+:+~ <+[+& &+                                ",
"                                    ! }+|+~ ~ ~ ~ ~ ~ ~ ~ ~ ~ ~ ~ ~ ~ ~ ~ ~ ~ ~ ~ 1+~ 2+8 3+  &                                 ",
"                                    / 4+5+~ 6+~ ~ ~ ~ ~ ~ ~ ~ ~ ~ ~ ~ ~ ~ ~ ~ ~ ~ ~ 7+8+/ %                                     ",
"                                    / 9+0+~ ~ ~ ~ ~ ~ ~ ~ ~ ~ ~ ~ ~ ~ ~ ~ ~ ~ ~ ~ ~ a+b+c+_                                     ",
"                                    ( k d+~ ~ ~ ~ ~ ~ ~ e+~ ~ ~ ~ ~ ~ ~ ~ ~ ~ f+g+~ h+~ i+j+                                    ",
"                                    i.k+H ~ ~ ~ 5.~ ~ 5.~ ~ l+e+~ ~ ~ ~ ~ ~ ~ m+~ ~ n+~ &+2.                                    ",
"                                    ]+o+p+~ ~ ~ ~ ~ ~ ~ ~ ~ q+r+~ ~ ~ ~ ~ ~ s+t+~ ~ n+~ u+!                                     ",
"                                    2.v+~ 5.~ ~ ~ ~ ~ ~ ~ ~ ~ w+x+y+z+A+B+C+D+~ ~ ~ E+F+i+^+                                    ",
"                                    ( } G+H+~ ~ ~ ~ ~ ~ ~ ~ ~ ~ I+J+K+L+M+N+~ ~ ~ ~ O+P+& !                                     ",
"                                        Q+R+5.~ ~ ~ ~ ~ ~ ~ ~ ~ ~ ~ ~ ~ ~ ~ ~ ~ ~ S+T+2.                                        ",
"                                        8 U+V+~ ~ ~ ~ ~ ~ ~ ~ ~ ~ ~ ~ ~ ~ ~ ~ ~ W+e X+3                                         ",
"                                        7 : Y+Z+~ ~ ~ ~ ~ ~ ~ ~ ~ ~ ~ ~ ~ ~ ~ `+ @.@+@3                                         ",
"                                        } @@#@$@%@x ~ ~ ~ ~ ~ ~ ~ ~ ~ ~ ~ >.I.&@*@=@h x.                                        ",
"                                    ) & -@;@>@~ ,@'@)@!@~@~ ~ ~ ~ ~ {@E ]@^@/@~ ~ (@_@+@}                                       ",
"                                    :@<@[@}@|@~ ~ ~ 1@2@3@4@5@6@7@8@9@0@a@~ ~ ~ ~ b@c@d@e@(                                     ",
"                      ! % 2./ ( v+f@g@h@i@j@~ ~ ~ ~ ~ ~ ~ ~ ~ ~ ~ ~ ~ ~ ~ ~ ~ ~ ~ ~ k@l@m@n@o@N / ( &+7 &                       ",
"                      p@q@r@s@t@u@v@w@x@y@z@~ ~ ~ ~ ~ ~ ~ ~ ~ ~ ~ ~ ~ ~ ~ ~ ~ ~ ~ ~ A@B@C@D@E@F@G@H@I@J@K@                      ",
"                      N L@q@M@N@O@P@Q@R@S@~ ~ ~ ~ ~ ~ ~ ~ ~ ~ ~ ~ ~ ~ ~ ~ ~ ~ ~ ~ ~ ~ T@U@h V@W@X@Y@Z@`@&                       ",
"                      _  #.#+#@#&+& ##$#%#~ ~ ~ ~ ~ ~ ~ ~ ~ ~ ~ ~ ~ ~ ~ ~ ~ ~ ~ ~ ~ ~ &#*#=#& -#;#>#,#` (                       ",
"                      '#)#!#~#{#  & ]#^#/#~ ~ ~ ~ ~ ~ ~ ~ ~ ~ ~ ~ ~ ~ ~ ~ ~ ~ ~ ~ ~ ~ (#_#i+  } :#<#[#}#)                       ",
"                          & c 2.x.} |#1#~ ~ ~ ~ ~ ~ ~ ~ ~ ~ ~ ~ ~ ~ ~ ~ ~ ~ ~ ~ ~ ~ ~ 2#A@3#    & c                             ",
"                          & i.4#5#_ 6#7#~ ~ ~ ~ ~ ~ ~ ~ ~ ~ ~ ~ ~ ~ ~ ~ ~ ~ ~ ~ ~ ~ ~ ~ 8#9#      &                             ",
"                      0#& 2.a#b#c#d#e#f#~ ~ ~ ~ ~ ~ ~ ~ ~ ~ ~ ~ ~ ~ ~ ~ ~ ~ ~ ~ ~ ~ ~ ~ g#h#]+:@                                ",
"                      7 i#j#k#l#m#n#o#p#~ ~ ~ ~ ~ ~ ~ ~ ~ ~ ~ ~ ~ ~ ~ ~ ~ ~ ~ ~ ~ ~ ~ ~ q#r#2 ]+                                ",
"                      ( s#t#u#t#v#w#~ x#~ ~ ~ ~ ~ ~ ~ ~ ~ ~ ~ ~ ~ ~ ~ ~ ~ ~ ~ ~ ~ ~ ~ ~ y#z#A###                                ",
"                        B#C#D#E#F#G#H#~ ~ ~ ~ ~ ~ ~ ~ ~ ~ ~ ~ ~ ~ ~ ~ ~ ~ ~ ~ ~ ~ ~ ~ ~ I#~ J#}                                 ",
"                      0#K#L#M#N#O#P#Q#~ ~ ~ ~ ~ ~ ~ ~ ~ ~ ~ ~ ~ ~ ~ ~ ~ ~ ~ ~ ~ ~ ~ ~ ~ ~ R#S#7                                 ",
"                                T#U#V#~ ~ ~ ~ ~ ~ ~ ~ ~ ~ ~ ~ ~ ~ ~ ~ ~ ~ ~ ~ ~ ~ ~ ~ ~ ~ W#X#Y#                                ",
"                                %+Z#`#~ ~ ~ ~ ~ ~ ~ ~ ~ ~ ~ ~ ~ ~ ~ ~ ~ ~ ~ ~ ~ ~ ~ ~ ~ ~  $.$:@                                ",
"                                ##+$@$#$$$%$&$*$=$-$;$>$,$'$)$!$~${$]$^$/$x#($_$:$<$[$}$|$1$2$7                                 ",
"                                3$4$5$6$7$8$9$0$a$b$c$d$e$f$g$h$i$j$k$l$m$n$o$p$p$q$r$s$t$u$v$$                                 ",
"                                ( } & ! 1.1.6 ]+w$x$( 3 3 3 3 3 i.i.y$c r@z$( % %   ) / & _ ! A$                                ",
"                                              _ B$C$D$!             E$2 F$G$(                                                   ",
"                                & &   &   & +@H$I$J$K$L$M$N$O$P$P$P$Q$R$S$T$U$V$W$X$c &   & &                                   ",
"                                  & c Y$Z$`$ %.%+%@%#%$%%%&%*%=%-%-%;%>%,%'%)%!%~%{%]%^%/%(%_%&                                 ",
"                                & :%<%[%;%-%}%|%1%2%3%4%5%6%7%*%-%-%-%8%9%0%a%b%c%6%d%e%[%f%g%h%                                ",
"                                & c M$^%i%[%f%j%k%l%m%n%o%p%q%}%r%r%-%]%s%t%n%u%p%v%w%x%y%z%A%B%                                ",
"                                &+& & & X$C%M$D%E%F%G%H%I%J%K%L%J%J%M%L%N%O%P%Q%R%S%M$T%U%c & &                                 ",
"                                    &           &   & &+&+&+&+V%V%V%&+V%&+8 &                                                   ",
"                                                                                                                                ",
"                                                                                                                                ",
"                                                                                                                                ",
"                                                                                                                                "};
