/* XPM */
static char * texture_xpm[] = {
"64 64 483 2",
"  	c #DC9100",
". 	c #FC0300",
"+ 	c #FE0200",
"@ 	c #FE0100",
"# 	c #F50A00",
"$ 	c #F30C00",
"% 	c #F10E00",
"& 	c #EF1100",
"* 	c #ED1200",
"= 	c #EB1400",
"- 	c #EA1600",
"; 	c #E71800",
"> 	c #E51A00",
", 	c #E31C00",
"' 	c #E11E00",
") 	c #E01F00",
"! 	c #DE2100",
"~ 	c #DC2300",
"{ 	c #DA2500",
"] 	c #D72700",
"^ 	c #D72800",
"/ 	c #D42B00",
"( 	c #D22D00",
"_ 	c #D02F00",
": 	c #CE3100",
"< 	c #CC3300",
"[ 	c #CA3400",
"} 	c #C83600",
"| 	c #C63900",
"1 	c #C53B00",
"2 	c #C33C00",
"3 	c #C13F00",
"4 	c #BF4000",
"5 	c #BD4200",
"6 	c #BB4400",
"7 	c #B94600",
"8 	c #B74800",
"9 	c #B54A00",
"0 	c #B34B00",
"a 	c #B24D00",
"b 	c #B04F00",
"c 	c #AD5200",
"d 	c #AC5300",
"e 	c #A95500",
"f 	c #A85700",
"g 	c #A65900",
"h 	c #A45B00",
"i 	c #A25D00",
"j 	c #A06000",
"k 	c #9D6100",
"l 	c #9D6200",
"m 	c #9A6500",
"n 	c #996700",
"o 	c #966900",
"p 	c #946A00",
"q 	c #926D00",
"r 	c #906E00",
"s 	c #8F7000",
"t 	c #8D7200",
"u 	c #8B7400",
"v 	c #897600",
"w 	c #877800",
"x 	c #857900",
"y 	c #847C00",
"z 	c #FD0200",
"A 	c #FF0600",
"B 	c #FF0000",
"C 	c #F00E00",
"D 	c #EF1000",
"E 	c #DF1F00",
"F 	c #D92500",
"G 	c #D82800",
"H 	c #D62900",
"I 	c #CE3101",
"J 	c #CB3400",
"K 	c #C93600",
"L 	c #C73800",
"M 	c #C53A00",
"N 	c #C23C00",
"O 	c #C03E00",
"P 	c #BF3F00",
"Q 	c #B34C00",
"R 	c #B14E00",
"S 	c #AF5000",
"T 	c #AC5400",
"U 	c #AA5500",
"V 	c #A05F00",
"W 	c #9E6200",
"X 	c #9C6300",
"Y 	c #986700",
"Z 	c #976900",
"` 	c #946B00",
" .	c #916E00",
"..	c #8D7300",
"+.	c #887700",
"@.	c #867900",
"#.	c #867A00",
"$.	c #817E00",
"%.	c #F50B00",
"&.	c #ED1300",
"*.	c #EB1300",
"=.	c #E91600",
"-.	c #E41B00",
";.	c #DE2200",
">.	c #DB2400",
",.	c #D92600",
"'.	c #C93701",
").	c #C63800",
"!.	c #C43B01",
"~.	c #C33D00",
"{.	c #C03F00",
"].	c #B44A00",
"^.	c #B44C00",
"/.	c #AD5100",
"(.	c #AB5400",
"_.	c #A95600",
":.	c #A55900",
"<.	c #A35B01",
"[.	c #916F00",
"}.	c #887600",
"|.	c #857A00",
"1.	c #837C00",
"2.	c #827D00",
"3.	c #7F8000",
"4.	c #F70800",
"5.	c #F20D01",
"6.	c #E61A00",
"7.	c #DD2100",
"8.	c #DC2400",
"9.	c #D72900",
"0.	c #C83700",
"a.	c #C43A00",
"b.	c #B24E00",
"c.	c #AE5200",
"d.	c #AA5600",
"e.	c #A35B00",
"f.	c #9E6100",
"g.	c #9D6300",
"h.	c #8E7001",
"i.	c #8A7500",
"j.	c #837B00",
"k.	c #827E00",
"l.	c #808000",
"m.	c #7D8200",
"n.	c #F40A00",
"o.	c #F30D00",
"p.	c #EE1000",
"q.	c #EC1400",
"r.	c #E51A01",
"s.	c #DA2600",
"t.	c #D52A00",
"u.	c #C73900",
"v.	c #C13E00",
"w.	c #AE5100",
"x.	c #9B6400",
"y.	c #956B00",
"z.	c #936D00",
"A.	c #897700",
"B.	c #847B00",
"C.	c #7B8400",
"D.	c #F20C00",
"E.	c #EC1300",
"F.	c #E91500",
"G.	c #DB2300",
"H.	c #D42A00",
"I.	c #CB3500",
"J.	c #BD4201",
"K.	c #A45C00",
"L.	c #A25E00",
"M.	c #966800",
"N.	c #8F7100",
"O.	c #867800",
"P.	c #798600",
"Q.	c #F10F00",
"R.	c #E21E00",
"S.	c #D32D00",
"T.	c #B05000",
"U.	c #A15D00",
"V.	c #9A6400",
"W.	c #986600",
"X.	c #8E7000",
"Y.	c #877900",
"Z.	c #7E8200",
"`.	c #798500",
" +	c #778700",
".+	c #E71700",
"++	c #D22D01",
"@+	c #CA3500",
"#+	c #C43B00",
"$+	c #B05001",
"%+	c #AB5300",
"&+	c #7A8500",
"*+	c #768900",
"=+	c #DD2200",
"-+	c #D62800",
";+	c #C23D00",
">+	c #9B6500",
",+	c #906F00",
"'+	c #8C7300",
")+	c #8B7500",
"!+	c #788700",
"~+	c #748C00",
"{+	c #E51900",
"]+	c #E02000",
"^+	c #D82700",
"/+	c #B44B00",
"(+	c #B14D00",
"_+	c #A85800",
":+	c #926C00",
"<+	c #758900",
"[+	c #748B00",
"}+	c #718E00",
"|+	c #E81800",
"1+	c #E11E01",
"2+	c #CF3100",
"3+	c #C93700",
"4+	c #C43A01",
"5+	c #B74801",
"6+	c #A55901",
"7+	c #9F6000",
"8+	c #9C6200",
"9+	c #976800",
"0+	c #867901",
"a+	c #788800",
"b+	c #728E00",
"c+	c #708F00",
"d+	c #A05F01",
"e+	c #8C7200",
"f+	c #7C8400",
"g+	c #7A8600",
"h+	c #718F00",
"i+	c #6E9100",
"j+	c #D52B00",
"k+	c #D22C00",
"l+	c #9D6101",
"m+	c #728D00",
"n+	c #6C9300",
"o+	c #DF2000",
"p+	c #AF4F00",
"q+	c #AB5401",
"r+	c #8F7001",
"s+	c #817D00",
"t+	c #7F8001",
"u+	c #7D8100",
"v+	c #738C00",
"w+	c #6A9500",
"x+	c #D12F00",
"y+	c #887601",
"z+	c #7F7F00",
"A+	c #718D00",
"B+	c #689700",
"C+	c #DF1F01",
"D+	c #C04000",
"E+	c #B74900",
"F+	c #A25E01",
"G+	c #6C9200",
"H+	c #6A9400",
"I+	c #669900",
"J+	c #B94700",
"K+	c #B54B00",
"L+	c #738B00",
"M+	c #699700",
"N+	c #659A00",
"O+	c #7B8300",
"P+	c #758A00",
"Q+	c #639C00",
"R+	c #778800",
"S+	c #708E00",
"T+	c #649A00",
"U+	c #609E00",
"V+	c #BF4001",
"W+	c #A85701",
"X+	c #9F5F00",
"Y+	c #8A7400",
"Z+	c #768A00",
"`+	c #6F9100",
" @	c #629C00",
".@	c #5EA100",
"+@	c #837C01",
"@@	c #7B8401",
"#@	c #6D9200",
"$@	c #629D00",
"%@	c #619F00",
"&@	c #5FA000",
"*@	c #5CA300",
"=@	c #9F5F01",
"-@	c #659B00",
";@	c #609F00",
">@	c #5FA100",
",@	c #5CA200",
"'@	c #5AA500",
")@	c #986701",
"!@	c #6E9000",
"~@	c #5BA500",
"{@	c #59A600",
"]@	c #A95601",
"^@	c #A15E00",
"/@	c #6B9500",
"(@	c #669901",
"_@	c #5EA000",
":@	c #5DA300",
"<@	c #57A800",
"[@	c #9A6501",
"}@	c #926D01",
"|@	c #8E7100",
"1@	c #817E01",
"2@	c #5BA400",
"3@	c #55AA00",
"4@	c #996600",
"5@	c #5DA200",
"6@	c #59A500",
"7@	c #53AC00",
"8@	c #708F01",
"9@	c #639D00",
"0@	c #52AC00",
"a@	c #51AE00",
"b@	c #6A9501",
"c@	c #4FB000",
"d@	c #BE4200",
"e@	c #4EB000",
"f@	c #4EB200",
"g@	c #887701",
"h@	c #619E00",
"i@	c #4FB100",
"j@	c #4EB100",
"k@	c #4BB400",
"l@	c #B64800",
"m@	c #9B6501",
"n@	c #4CB300",
"o@	c #49B600",
"p@	c #C04001",
"q@	c #5FA101",
"r@	c #4DB200",
"s@	c #4AB500",
"t@	c #47B700",
"u@	c #8B7501",
"v@	c #5AA400",
"w@	c #4DB100",
"x@	c #4CB400",
"y@	c #45BA00",
"z@	c #BD4100",
"A@	c #49B500",
"B@	c #47B800",
"C@	c #43BC00",
"D@	c #A45B01",
"E@	c #708E01",
"F@	c #4AB600",
"G@	c #48B800",
"H@	c #46BA00",
"I@	c #43BB00",
"J@	c #42BD00",
"K@	c #55AA01",
"L@	c #4BB300",
"M@	c #45B900",
"N@	c #3FBF00",
"O@	c #649B00",
"P@	c #46B900",
"Q@	c #40BF00",
"R@	c #3DC100",
"S@	c #8D7201",
"T@	c #748C01",
"U@	c #44BC00",
"V@	c #42BE00",
"W@	c #3EC100",
"X@	c #3CC300",
"Y@	c #AD5201",
"Z@	c #6F9000",
"`@	c #3AC500",
" #	c #3BC300",
".#	c #37C700",
"+#	c #50AE01",
"@#	c #40BF01",
"##	c #3CC400",
"$#	c #39C500",
"%#	c #38C700",
"&#	c #37C900",
"*#	c #639C01",
"=#	c #4BB401",
"-#	c #48B700",
";#	c #38C800",
">#	c #36C900",
",#	c #35CB00",
"'#	c #AA5601",
")#	c #A65A00",
"!#	c #956B01",
"~#	c #728D01",
"{#	c #34CB00",
"]#	c #33CD00",
"^#	c #58A800",
"/#	c #36C800",
"(#	c #34CA00",
"_#	c #31CE00",
":#	c #956A00",
"<#	c #6D9300",
"[#	c #32CD00",
"}#	c #30CF00",
"|#	c #2ED100",
"1#	c #8A7401",
"2#	c #5AA600",
"3#	c #53AC01",
"4#	c #4FB001",
"5#	c #3EC101",
"6#	c #3AC600",
"7#	c #37C800",
"8#	c #31CF00",
"9#	c #2FD100",
"0#	c #2CD300",
"a#	c #44BB00",
"b#	c #2BD400",
"c#	c #7B8301",
"d#	c #30CE00",
"e#	c #2CD200",
"f#	c #29D600",
"g#	c #936C00",
"h#	c #738B01",
"i#	c #3CC301",
"j#	c #2FD000",
"k#	c #2BD500",
"l#	c #27D800",
"m#	c #32CC00",
"n#	c #24DA00",
"o#	c #3AC501",
"p#	c #2DD300",
"q#	c #26D800",
"r#	c #25DA00",
"s#	c #23DC00",
"t#	c #7C8300",
"u#	c #51AF00",
"v#	c #42BD01",
"w#	c #35CA00",
"x#	c #21DE00",
"y#	c #28D600",
"z#	c #27D900",
"A#	c #24DB01",
"B#	c #23DD00",
"C#	c #21DF00",
"D#	c #1FDF00",
"E#	c #6C9301",
"F#	c #619E01",
"G#	c #30CF01",
"H#	c #25DB00",
"I#	c #20DE00",
"J#	c #1FE000",
"K#	c #1EE200",
"L#	c #41BD00",
"M#	c #22DD00",
"N#	c #1DE200",
"O#	c #1BE400",
"P#	c #33CC00",
"Q#	c #20DF00",
"R#	c #1AE600",
"S#	c #53AD00",
"T#	c #1CE300",
"U#	c #19E500",
"V#	c #17E700",
"W#	c #19E600",
"X#	c #17E800",
"Y#	c #15EA00",
"Z#	c #2AD400",
"`#	c #29D700",
" $	c #1DE100",
".$	c #16EA00",
"+$	c #14EC00",
"@$	c #40C000",
"#$	c #14EB00",
"$$	c #12EE00",
"%$	c #26D900",
"&$	c #1BE300",
"*$	c #10F000",
"=$	c #12ED01",
"-$	c #0FEF00",
";$	c #0DF200",
">$	c #13EB00",
",$	c #10EF00",
"'$	c #0DF100",
")$	c #0BF300",
"!$	c #2DD200",
"~$	c #24DB00",
"{$	c #13EC00",
"]$	c #12ED00",
"^$	c #0EF200",
"/$	c #0CF300",
"($	c #0AF500",
"  . + @ # $ % & * = - ; > , ' ) ! ~ { ] ^ / ( _ : < [ } | 1 2 3 4 5 6 7 8 9 0 a b c d e f g h i j k l m n o p q r s t u v w x y ",
"z A B # $ C D * = - ; > , ' E ! ~ F G H / ( _ I < J K L M N O P 5 6 7 8 9 Q R S c T U f g h i V W X m Y Z ` q  .s ..u +.@.#.y $.",
"A z %.$ % D &.*.=.; > -.' ) ;.>.,.G H / ( _ : < J '.).!.~.{.4 5 6 7 8 ].^.R b /.(._.f :.<.i V k X m Y o p q [.s t u }.w |.1.2.3.",
"4.# 5.% D &.= =.; 6., ' E 7.8.,.G 9./ ( _ : < J 0.L a.2 3 4 5 6 7 8 9 ^.b.S c.(.d.f g e.i V f.g.m Y o p q  .h.t i.v w #.j.k.l.m.",
"n.o.% p.* q.=.; r., ' ) 7.~ s.^ H t.( _ : < [ K u.M N v.4 5 6 7 8 9 ^.R S w.d _.f g h i V f.l x.n Z y.z. .s t i.A.w |.B.$.3.m.C.",
"D.% p.* E.F.; > , ' ) ! G.s.G H H.( _ : < I.K ).1 2 {.4 J.6 7 8 9 ^.R S c.d U f :.K.L.V f.g.x.n M.` z. .N.t u v O.|.1.$.3.m.C.P.",
"Q.& E.= =.; > , R.) ! ~ ,.] ^ / S._ : < J K u.a.N O 4 5 6 7 8 9 0 R T.c (.e f g h U.V f.X V.W.o ` q [.X.t u A.Y.#.1.$.3.Z.C.`. +",
"& E.*.=..+> , ' E ! ~ ,.] H / ++_ : < @+0.u.#+~.O 4 5 6 7 8 9 ^.a $+c %+_.f g K.i V k X m Y o p q  .X...u A.w x 1.$.3.m.C.&+ +*+",
"&.= =.; > , ' ) =+8.s.^ -+/ ( _ : < J K | #+;+{.4 5 6 7 8 ].0 R S c d d.f g h L.V W l >+n o ` q ,+s '+)++.w x j.$.3.m.C.`.!+*+~+",
"= =.; {+, ' ]+7.~ s.^+9./ ( _ : < [ K L M N 3 4 5 6 7 8 9 /+(+S w.d _._+g h L.j f.l >+n o p :+ .X.t u A.w x 1.$.3.Z.C.`.!+<+[+}+",
"=.|+6., 1+) 7.~ F ^+H H.( _ 2+< J 3+| 4+2 O 4 5 6 7 5+9 Q (+b c.d _.f 6+h i 7+f.8+m Y 9+` z.r X.t u v 0+@.y $.3.m.C.&+a+*+~+b+c+",
".+> , ' E =+G.,.] H / S._ : < I.3+).a.2 {.4 5 6 7 8 9 0 b.T.c d _.f g h i d+W X m Y o ` q  .s e+u v O.x 1.$.3.m.f+g+a+*+~+}+h+i+",
"> -.' ) ! ~ F ^+-+j+k+_ : < J 3+| a.2 3 4 5 6 7 8 9 ^.b.S w.T _.f g h L.7+l+X V.W.M.p :+,+N...u A.O.x j.k.l.m.C.g+a+<+~+m+h+i+n+",
", ' o+=+>.F ] H / ( _ : < J 0.u.a.2 O 4 5 6 7 8 9 ^.b.p+c q+e f :.h i V f.X m W.9+` z. .r+t u A.Y.|.1.s+t+u+C.&+ +*+v+}+c+i+n+w+",
"' E ! G.s.^ H / ( x+2+< @+0.).M ;+O 4 5 6 7 8 9 0 b.p+c.T d.f g h L.V f.g.m Y M.` :+r s t )+y+O.@.1.$.z+m.C.&+!+*+~+A+c+i+n+w+B+",
"C+! 8.s.^+H / S._ : < I.3+| #+~.{.D+5 6 7 E+9 ^.a p+/.T e f g h F+j f.X >+W.Z ` q r N.t u v Y.|.1.$.3.m.C.&+ +*+~+A+c+i+G+H+B+I+",
"7.~ { ^ H H.( _ : < I.0.u.1 N 3 D+5 6 J+8 K+^.R b c.d e _+g K.i j W g.m Y o ` z.r X.e+u v w |.y k.3.m.C.&+!+<+L+b+h+i+n+H+M+I+N+",
"8.{ ^ H H.( _ : < [ 0.u.a.2 v.4 5 6 7 8 K+Q (+S w.T U f g e.i V f.X >+W.o y.:+ .s e+u +.w |.1.$.3.m.O+&+ +P+[+A+c+i+n+w+B+I+N+Q+",
"{ ^+9.j+S._ : < I.} L 1 2 3 4 5 6 7 8 ].0 a p+/.T _.f g h i j k g.m n o ` q [.X...u v w |.1.s+z+m.C.&+R+P+[+A+S+i+n+w+B+I+T+Q+U+",
"^+H / ( _ : < J } L 1 ~.O V+5 6 7 8 K+^.b.S c (._.W+g h i X+W l m W.9+` :+ .s t Y+v O.x y $.t+m.C.&+ +Z+[+}+c+`+n+w+B+I+T+ @U+.@",
"H H.( _ : < J 0.L 1 ;+O 4 5 6 J+8 ].0 b.b /.(._.f g h i 7+f.8+>+W.o p q  .s t u v Y.|.+@s+l.Z.@@&+a+*+[+}+c+i+#@w+B+I+N+$@%@&@*@",
"/ ( _ : < [ K | a.N {.4 5 6 7 E+9 Q b.p+w.d e f g h i =@W X m W.Z ` :+[.N...)++.w |.y $.3.m.C.&+!+*+[+m+c+i+n+w+B+I+-@$@;@>@,@'@",
"( _ 2+< I.} u.M ;+{.4 5 6 7 8 9 ^.(+T.c.%+_.f g h i 7+f.X >+)@o ` q [.s '+u v Y.|.j.$.l.m.C.&+a+<+~+}+}+!@G+w+B+I+T+Q+;@.@,@~@{@",
"_ : < [ 3+L 1 ~.v.4 5 6 7 E+9 ^.b.S c %+]@f g h ^@V f.g.x.Y 9+` z. .s t i.v O.@.y k.3.u+C.&+ +P+v+m+c+i+n+/@B+(@-@$@%@_@:@~@{@<@",
": < @+K u.1 N {.P 5 6 7 8 9 Q (+T.c (.e f g h U.X+W l [@Y M.` }@ .|@..Y+v w |.1.1@3.m.C.`.a+P+L+}+c+i+n+w+B+I+N+ @U+&@*@2@{@<@3@",
"< I.K u.1 N {.4 5 6 7 8 ].0 b.T.c %+_.f g e.i V W 8+V.4@o ` q  .s t u A.w |.1.$.3.m.C.`. +P+[+m+c+i+n+w+B+I+T+ @;@_@5@~@6@<@3@7@",
"J K u.#+;+O 4 5 6 7 8 9 Q R p+c (.e f g h i V W 8+m W.o ` q  .s e+Y++.w @.1.$.3.m.O+&+!+*+[+b+8@i+n+w+B+I+T+9@%@_@*@~@{@<@3@0@a@",
"K ).#+;+O 4 5 6 7 8 9 0 a p+c.(._.f g h U.V f.X >+Y M.p q  .s ..Y+v O.|.1.$.3.m.C.&+ +Z+L+b+c+i+G+b@B+I+T+ @%@_@*@~@6@<@3@7@a@c@",
").M 2 O D+d@6 7 8 K+/+b.p+c.%+d.f g h i V f.l x.Y 9+` q  .s t u v w |.j.s+3.m.C.&+!+*+[+A+c+`+n+w+B+I+N+Q+U+.@,@2@6@<@3@7@a@e@f@",
"M ~.3 4 5 6 7 8 9 0 a T.c T U f g K.U.V f.g.>+Y o ` q  .s t u g@O.#.1.s+l.u+C.&+!+Z+[+m+S+!@n+w+B+I+-@ @h@_@5@'@{@<@3@7@a@i@j@k@",
"2 3 4 5 6 7 l@9 /+R S /.%+_.f g K.i X+f.X m@Y M.p q  .s ..Y+A.Y.|.y k.3.m.C.&+!+P+v+b+S+!@n+w+B+I+-@ @h@.@5@'@{@<@3@7@a@c@f@n@o@",
"v.p@5 6 7 8 9 /+a T.c.%+_.f g h i V W X m Y M.` q r |@e+u v w |.1.s+3.m.C.&+!+P+v+m+c+`+n+/@B+I+N+9@;@q@5@2@{@<@3@7@a@c@r@k@s@t@",
"4 5 6 7 8 9 /+b.b c (._.f g K.i V l X m Y o ` q  .N.t u@v O.|.j.$.3.m.C.&+!+*+L+A+c+!@n+w+M+I+N+$@;@>@*@v@{@<@3@7@a@c@w@x@o@t@y@",
"z@6 7 8 9 /+b.S c.(._.f g K.i V f.X >+4@o p q [.N.'+u v w #.y $.3.m.O+&+!+P+v+b+c+!@#@w+M+I+-@Q+%@&@,@'@{@<@3@0@a@c@r@x@A@B@y@C@",
"6 7 8 9 ^.R S c T U f g D@i V W g.m n Z ` z.,+N.t u v w x j.$.z+m.@@&+ +<+[+m+E@!@n+w+B+I+T+ @U+.@5@2@{@<@3@7@a@c@r@x@F@G@H@I@J@",
"7 8 K+Q R b w.d d.f g h i V W g.V.Y 9+` z. .s t )+v Y.x 1.s+3.u+C.g+R+Z+[+b+}+i+n+H+B+I+N+Q+U+&@,@v@{@<@K@7@a@c@w@L@o@G@M@C@J@N@",
"8 K+0 R S c T _.f g h i V f.g.>+n Z p q ,+s t i.A.@.#.j.$.3.m.C.&+ +Z+[+A+h+i+n+w+B+I+O@9@%@&@:@'@{@<@3@7@a@c@w@k@A@t@P@C@J@Q@R@",
"9 Q (+S c (.e f g h L.V f.X >+Y o ` q  .s S@u v O.|.1.$.3.m.C.&+!+*+T@m+c+i+n+w+B+I+N+$@U+>@*@v@{@<@3@7@a@c@w@L@s@t@H@U@V@Q@W@X@",
"0 a S Y@T d.f g h i V k l m@W.Z p :+r N.t Y+v w |.y $.3.m.C.`.R+*+~+m+c+Z@n+w+B+I+N+ @;@_@*@2@{@<@3@7@a@c@w@x@A@t@y@C@J@Q@W@X@`@",
"b.T./.(._.f g h i j f.8+m n o p q  .s e+)+v w x 1.$.l.Z.O+`.!+*+L+b+c+i+n+w+B+I+O@$@%@.@:@~@{@<@3@7@a@c@j@x@F@G@y@I@J@Q@R@ #`@.#",
"S w.T U f g h i V W 8+m Y M.` z. .N.e+u v Y.#.1.$.l.m.C.&+ +<+[+b+c+!@n+w+B+I+T+Q+h@>@:@~@{@<@3@7@+#c@f@k@o@B@y@C@J@@#W@##$#%#&#",
"c.d e f g h i V W 8+x.n o ` z. .N.e+Y+v w |.j.s+3.m.C.&+!+<+~+b+c+!@n+w+B+I+-@*#U+_@*@v@{@<@3@7@a@c@f@=#o@-#P@C@J@Q@W@##`@;#>#,#",
"(.'#f )#h i V f.g.>+Y Z !#q  .N.t )+}.w #.1.$.3.m.f+P.!+*+v+~#c+i+G+w+B+I+T+Q+U+&@*@v@{@<@3@7@a@c@j@x@s@-#y@U@J@Q@W@X@`@;#&#{#]#",
"e f g h i V f.l m 4@o p z. .|@t Y+}.w |.1.$.l.m.C.&+a+Z+[+}+c+!@n+w+B+I+N+Q+;@>@*@~@{@^#3@7@a@c@r@n@A@B@y@U@J@Q@W@##`@%#/#(#]#_#",
"f g h U.V k g.>+4@o :#:+ .s t u +.@.|.B.$.3.m.C.&+ +*+v+m+c+i+<#w+B+I+N+9@h@>@:@'@{@<@3@7@a@c@f@k@A@t@H@U@J@Q@W@X@`@.#>#(#[#}#|#",
"g h i V l X >+4@o y.q  .s t 1#v O.|.1.$.3.m.C.&+ +*+~+A+c+i+n+w+B+I+T+9@%@&@,@2@2#<@3@3#a@4#w@k@F@B@H@C@J@Q@5#X@6#7#&#{#[#8#9#0#",
"e.i X+f.g.V.Y o :#q  .X.t u v Y.|.+@$.l.m.O+&+!+P+L+m+c+i+n+/@B+I+N+ @%@&@,@~@{@<@3@7@a@c@j@x@o@-#P@a#J@Q@W@X@`@.#>#{#]#}#9#0#b#",
"U.7+f.X x.4@Z ` }@ .s e+Y+v Y.|.1.$.l.m.c#`.!+*+L+m+c+i+n+w+B+I+T+9@h@&@5@'@{@<@3@7@a@c@w@n@s@-#H@C@J@Q@W@ #`@;#&#{#]#d#|#e#b#f#",
"j f.X m 4@o ` g# .s t Y+v O.@.1.s+t+m.C.&+ +*+h#m+c+i+n+w+B+I+-@9@%@&@*@'@{@<@3@7@a@e@w@n@A@G@H@C@J@Q@W@i#$#%#>#{#[#}#j#0#k#f#l#",
"k g.m W.o ` q  .s t u A.w x j.$.3.m.f+&+R+Z+v+A+c+i+n+w+B+I+T+Q+h@>@:@v@{@<@3@3#a@c@r@k@o@G@y@C@J@Q@W@X@`@.#&#,#m#8#|#0#b#f#l#n#",
"g.V.n M.` q  .X.t Y+v O.|.1.$.3.m.C.g+ +Z+[+}+c+i+n+w+B+(@N+9@U+.@:@2@{@<@3@7@a@c@j@x@o@G@y@C@J@Q@W@##o#%#/#{#[#d#|#p#b#f#q#r#s#",
"V.n M.` :+ .N.t u v Y.|.1.s+3.Z.t#&+!+*+~+}+8@!@n+/@B+I+O@Q+h@.@,@'@{@<@3@7@u#i@f@k@A@B@M@C@v#Q@R@X@`@%#7#w#m#}#|#0#b#f#q#n#s#x#",
"W.Z p q  .N...u }.Y.|.j.$.3.m.C.&+R+*+v+b+c+i+n+w+B+I+N+$@;@&@5@~@{@<@3@7@a@c@w@k@o@G@M@C@J@N@W@X@`@;#>#(#[#}#|#0#b#y#z#A#B#C#D#",
"o ` q  .s e+Y+A.Y.#.j.$.3.m.O+&+!+*+[+b+c+i+E#H+M+I+O@$@F#_@5@~@{@<@3@7@a@c@f@n@F@t@H@C@J@Q@W@X@$#%#&#w#m#G#|#e#b#f#l#H#s#I#J#K#",
"` q  .X.t Y+A.O.|.1.s+3.m.C.&+!+Z+v+b+h+Z@n+w+B+I+N+Q+%@_@5@v@{@<@3@7@a@e@r@k@o@-#M@U@L#Q@W@X@`@;#7#(#[#d#|#p#k#f#z#H#M#C#D#N#O#",
"q  .|@e+i.v @.|.1.k.3.m.C.`. +<+~+b+c+i+n+w+B+I+N+ @U+_@,@2@{@<@3@7@a@c@f@x@o@B@y@C@J@Q@W@X@`@%#&#,#P#}#|#0#k#f#l#r#s#x#Q#K#O#R#",
" .N.t u }.O.#.1.$.3.u+C.g+!+*+[+A+c+i+n+w+B+I+N+9@U+>@:@2@{@<@3@S#a@i@r@L@A@-#H@a#J@Q@W@##`@;#>#{#[#}#|#0#b#f#l#n#s#x#D#K#T#U#V#",
"N.t Y+v Y.|.1.$.l.m.O+&+!+<+[+A+h+!@n+w+B+I+N+Q+%@_@:@2@{@<@3@7@a@c@j@x@F@G@H@C@J@Q@W@X@`@%#>#{#]#d#j#0#b#f#l#r#M#Q#D#N#O#W#X#Y#",
"..u A.O.@.y $.z+m.f+&+ +<+[+b+c+i+n+w+M+I+O@Q+U+&@:@'@{@<@3@0@a@c@w@k@A@t@y@U@J@Q@W@X@`@%#/#(#m#8#|#e#Z#`#q#n#s#Q#J# $O#W#X#.$+$",
"i.v O.x 1.s+3.m.C.&+!+P+[+}+c+`+G+/@B+I+-@Q+h@>@,@2@{@<@3@S#a@c@w@x@o@G@P@U@J@@$W@ #$#%#>#,#m#}#|#0#k#f#l#n#s#I#J#N#O#W#X#Y##$$$",
"v w x 1.$.3.m.C.&+!+P+~+m+c+i+G+w+B+I+N+Q+U+_@:@'@{@<@3@7@a@c@r@x@F@-#y@U@J@Q@W@X@`@%#>#,#[#_#|#0#b#f#%$H#s#x#D# $&$W#X#Y#+$$$*$",
"w #.1.s+l.m.C.`.a+Z+L+m+c+i+n+H+B+I+T+Q+;@>@*@v@{@<@3@7@a@c@w@L@o@B@H@I@J@Q@W@X@6#.#>#{#[#}#9#0#b#f#l#r#s#Q#J#K#O#W#X#Y#+$=$-$;$",
"@.1.$.3.u+C.P.R+<+L+b+c+!@n+w+B+I+-@Q+;@_@,@v@{@<@3@7@a@c@j@L@A@G@M@C@J@Q@W@X@`@%#&#{#[#}#9#e#k#f#l#r#s#x#J# $&$W#X#Y#>$$$,$'$)$",
"1.$.3.m.C.g+!+P+L+m+S+!@n+w+B+I+N+$@h@.@,@2@{@<@3@7@a@c@f@k@s@B@M@C@J@Q@W@X@`@%#&#{#P#8#|#!$b#f#l#~$s#x#J# $&$W#X#.${$]$*$^$/$($"};
