/* XPM */
static char * texture_xpm[] = {
"64 64 246 2",
"  	c #FFFFFF",
". 	c #FEFEFE",
"+ 	c #F1F1F1",
"@ 	c #CACACA",
"# 	c #8A8A8A",
"$ 	c #4F4F4F",
"% 	c #313131",
"& 	c #444444",
"* 	c #7A7A7A",
"= 	c #BEBEBE",
"- 	c #ECECEC",
"; 	c #FDFDFD",
"> 	c #F7F7F7",
", 	c #D9D9D9",
"' 	c #B3B3B3",
") 	c #828282",
"! 	c #5E5E5E",
"~ 	c #4B4B4B",
"{ 	c #7C7C7C",
"] 	c #BBBBBB",
"^ 	c #E9E9E9",
"/ 	c #F9F9F9",
"( 	c #FBFBFB",
"_ 	c #E3E3E3",
": 	c #A2A2A2",
"< 	c #111111",
"[ 	c #020202",
"} 	c #090909",
"| 	c #3C3C3C",
"1 	c #8E8E8E",
"2 	c #FAFAFA",
"3 	c #E0E0E0",
"4 	c #B1B1B1",
"5 	c #757575",
"6 	c #404040",
"7 	c #242424",
"8 	c #1B1B1B",
"9 	c #5A5A5A",
"0 	c #ADADAD",
"a 	c #E2E2E2",
"b 	c #F8F8F8",
"c 	c #D1D1D1",
"d 	c #7D7D7D",
"e 	c #252525",
"f 	c #010101",
"g 	c #000000",
"h 	c #181818",
"i 	c #676767",
"j 	c #C3C3C3",
"k 	c #F4F4F4",
"l 	c #EBEBEB",
"m 	c #7B7B7B",
"n 	c #3A3A3A",
"o 	c #0A0A0A",
"p 	c #292929",
"q 	c #6C6C6C",
"r 	c #B4B4B4",
"s 	c #626262",
"t 	c #151515",
"u 	c #080808",
"v 	c #AFAFAF",
"w 	c #F5F5F5",
"x 	c #D0D0D0",
"y 	c #919191",
"z 	c #494949",
"A 	c #141414",
"B 	c #121212",
"C 	c #8D8D8D",
"D 	c #CBCBCB",
"E 	c #EFEFEF",
"F 	c #E7E7E7",
"G 	c #A9A9A9",
"H 	c #4C4C4C",
"I 	c #0B0B0B",
"J 	c #030303",
"K 	c #393939",
"L 	c #9B9B9B",
"M 	c #FCFCFC",
"N 	c #E4E4E4",
"O 	c #ABABAB",
"P 	c #222222",
"Q 	c #050505",
"R 	c #282828",
"S 	c #6A6A6A",
"T 	c #E1E1E1",
"U 	c #DADADA",
"V 	c #909090",
"W 	c #373737",
"X 	c #040404",
"Y 	c #2D2D2D",
"Z 	c #868686",
"` 	c #D6D6D6",
" .	c #969696",
"..	c #D3D3D3",
"+.	c #CCCCCC",
"@.	c #767676",
"#.	c #202020",
"$.	c #6F6F6F",
"%.	c #C7C7C7",
"&.	c #191919",
"*.	c #070707",
"=.	c #2E2E2E",
"-.	c #777777",
";.	c #BDBDBD",
">.	c #EEEEEE",
",.	c #616161",
"'.	c #595959",
").	c #B5B5B5",
"!.	c #EDEDED",
"~.	c #D4D4D4",
"{.	c #8B8B8B",
"].	c #131313",
"^.	c #4E4E4E",
"/.	c #9F9F9F",
"(.	c #DCDCDC",
"_.	c #515151",
":.	c #464646",
"<.	c #F0F0F0",
"[.	c #BFBFBF",
"}.	c #696969",
"|.	c #212121",
"1.	c #707070",
"2.	c #434343",
"3.	c #060606",
"4.	c #363636",
"5.	c #DBDBDB",
"6.	c #A3A3A3",
"7.	c #0F0F0F",
"8.	c #3D3D3D",
"9.	c #353535",
"0.	c #0C0C0C",
"a.	c #1D1D1D",
"b.	c #2B2B2B",
"c.	c #7F7F7F",
"d.	c #D2D2D2",
"e.	c #878787",
"f.	c #343434",
"g.	c #575757",
"h.	c #AEAEAE",
"i.	c #E8E8E8",
"j.	c #CFCFCF",
"k.	c #2A2A2A",
"l.	c #717171",
"m.	c #C9C9C9",
"n.	c #262626",
"o.	c #737373",
"p.	c #C6C6C6",
"q.	c #F3F3F3",
"r.	c #6B6B6B",
"s.	c #1E1E1E",
"t.	c #383838",
"u.	c #646464",
"v.	c #F2F2F2",
"w.	c #BABABA",
"x.	c #5D5D5D",
"y.	c #171717",
"z.	c #4A4A4A",
"A.	c #545454",
"B.	c #333333",
"C.	c #686868",
"D.	c #A6A6A6",
"E.	c #3F3F3F",
"F.	c #727272",
"G.	c #505050",
"H.	c #888888",
"I.	c #E6E6E6",
"J.	c #A8A8A8",
"K.	c #4D4D4D",
"L.	c #101010",
"M.	c #666666",
"N.	c #232323",
"O.	c #525252",
"P.	c #AAAAAA",
"Q.	c #989898",
"R.	c #F6F6F6",
"S.	c #CDCDCD",
"T.	c #797979",
"U.	c #D7D7D7",
"V.	c #303030",
"W.	c #A7A7A7",
"X.	c #979797",
"Y.	c #454545",
"Z.	c #A0A0A0",
"`.	c #BCBCBC",
" +	c #CECECE",
".+	c #7E7E7E",
"++	c #ACACAC",
"@+	c #939393",
"#+	c #6D6D6D",
"$+	c #C4C4C4",
"%+	c #747474",
"&+	c #565656",
"*+	c #B0B0B0",
"=+	c #656565",
"-+	c #1F1F1F",
";+	c #272727",
">+	c #484848",
",+	c #0D0D0D",
"'+	c #414141",
")+	c #9A9A9A",
"!+	c #DDDDDD",
"~+	c #DEDEDE",
"{+	c #9D9D9D",
"]+	c #474747",
"^+	c #C5C5C5",
"/+	c #787878",
"(+	c #E5E5E5",
"_+	c #B6B6B6",
":+	c #5B5B5B",
"<+	c #2F2F2F",
"[+	c #818181",
"}+	c #1A1A1A",
"|+	c #5C5C5C",
"1+	c #B2B2B2",
"2+	c #EAEAEA",
"3+	c #C0C0C0",
"4+	c #636363",
"5+	c #1C1C1C",
"6+	c #C2C2C2",
"7+	c #C8C8C8",
"8+	c #B7B7B7",
"9+	c #6E6E6E",
"0+	c #535353",
"a+	c #8F8F8F",
"b+	c #0E0E0E",
"c+	c #A5A5A5",
"d+	c #2C2C2C",
"e+	c #424242",
"f+	c #3B3B3B",
"g+	c #606060",
"h+	c #C1C1C1",
"i+	c #B9B9B9",
"j+	c #323232",
"k+	c #D5D5D5",
"l+	c #DFDFDF",
"m+	c #585858",
"n+	c #A1A1A1",
"o+	c #9C9C9C",
"p+	c #B8B8B8",
"q+	c #161616",
"r+	c #8C8C8C",
"s+	c #D8D8D8",
"t+	c #959595",
"u+	c #838383",
"v+	c #949494",
"w+	c #848484",
"                          . + @ # $ % & * = - ;                         > , ' ) ! ~ { ] ^ /                                     ",
"                          ( _ : ~ < [ } | 1 , 2                       2 3 4 5 6 7 8 9 0 a /                                     ",
"                          b c d e f g g h i j k                     ; l = m n < o p q r ^ 2                                     ",
"                        . + = s t g g g u ~ v - .                   w x y z A [ B & C D E .                                     ",
"                        ; F G H I g g g J K L _ ;                 M N O s P Q Q R S ' T (                                       ",
"                        2 U V W X g g g [ Y Z ` 2                 k D ) W o J t ~  ...>                                         ",
"                        w +.@.e [ g f g f #.$.%.k               ; F O 9 &.[ *.=.-.;.>..                                         ",
"                        + ;.,.h f f J f f A '.).!..             / ~.{.K } [ ].^./.(.(                                           ",
"                      . l v _.< f J u J g I :.: N ;           . <.[.}.|.J X e 1.[.+ .                                           ",
"                      ; _ /.2.I g Q < u f 3.4.V 5.2           ; N 6.H 7.f } 8.V , 2                                             ",
"                      2 U C 9.3.f 0.a.< [ X b.c.d.>           / ..e.f.3.f t g.h.i..                                             ",
"                      > j.m p J [ t k.h [ J 7 l.m.w         . <.= i #.[ J n.o.p.k                                               ",
"                      q.p.r.#.[ J s.t.#.J [ a.u.[.v.        ; N 6.H 7.f } 8.y 5.(                                               ",
"                      <.w.x.y.f Q p z.Y 3.f A A.4 - .       / ..e.f.3.f t g.v ^ .                                               ",
"                    . l 4 _.< f *.B.! | I g I & /._ ;     . <.[.C.#.[ J n.o.p.k                                                 ",
"                    ; i.D.:.I g I E.F.G.t f 3.B.H.` 2     ; I.J.K.7.f } | V 5.(                                                 ",
"                    M a L 8.u f L.z.e.M.N.J J N.$.%.k     2 5.V K *.f ].O.P.i..                                                 ",
"                    ( (.y W 3.f ].A.Q.c.B.3.f t '.).!..   R.S.T.p J [ s.i [.+                                                   ",
"                    / U.e.V.Q f y.x.W.X.Y.0.g 0.Y.Z._ ; . E `.u.s.[ X k.m  +>                                                   ",
"                    > c .+k.J [ s.M.r ++'.t f 3.B.e.` / ; N 6.^.B f u | @+(.2                                                   ",
"                    w S.-.n.J [ P #+;.[.1.7 J J P $.$+q.b c e.9.*.f A A.++F ;                                                   ",
"                    w @ %+7 J J N.l.$+ +# 9.3.f A &+*+i.- w.=+-+J X ;+o.$+v.                                                    ",
"                    w m.1.N.J J 7 %+m.5.: >+,+g o '+)+!+~+{+]+,+f I 6 @+U 2                                                     ",
"                    k ^+q |.[ J n./+S.(+_+:+&.[ X <+e.x +.[+<+X [ }+|+1+2+.                                                     ",
"                    v.3+4+5+[ X b.[+..- 6+S |.[ J ;+T.$+w.}.#.[ J ;+5 7+w                                                       ",
"                    E 8+g.A f 3.9.1 5.+ +.5 e J J P 9+).D.0+].f *.W C U 2                                                       ",
"                  . 2+O ~ ,+g } 6 {+a w ..[+b.X [ a.,.D.a+E.o g b+z.c+(+;                                                       ",
"                  ; a {+6 } g ,+~ O ^ / 5.V W 3.f ].O.a+%+d+X [ 8 ,.w.>..                                                       ",
"                  2 5.1 f.3.f A g.8+E ; N : Y.I g I 6 -.:+s.[ X p /+D R.                                                        ",
"                  > d.c.k.J [ a.=+3+q.. - 4 A.].f 3.% |+e+< f u f+V 5.2                                                         ",
"                  w @ o.7 J J N.l.m.w   v.;.g+5+[ X N.Y.d+*.f ].O.O F ;                                                         ",
"                  q.6+i s.[ J p d x >   k [.=+s.[ J a.f.5+J J N.9+h++ .                                                         ",
"                  <.i+:+y.f Q j+# , /   v.[.g+}+[ J }+;+7.f *.9.H.k+/                                                           ",
"                . l h.$ < f u | Q.l+M   <.i+m+< g J y.5+3.f 7.>+n+N ;                                                           ",
"                ; a o+e+o g 0.z W.F ;   E p+A.7.g [ ,+L.J f q+'.r !..                                                           ",
"                / ~.Z j+3.f q+9 8+>..   <.w.m+7.g g J 3.f [ -+S $+q.                                                            ",
"              . + h+q P J J 7 F.7+k     k $+i q+g g g f g [ ;+m j.>                                                             ",
"              ; I.J._.B f *.K r+s+2     / U.e.V.J g g g g [ Y # U 2                                                             ",
"              2 U.{.W *.f B $ J.I.;     . 2+*+x.h f g g g [ % t+a ;                                                             ",
"              w m.F.7 J [ s.M.= + .       2 s+Q.]+,+g g g [ 4.{+F .                                                             ",
"              <.h+M.}+f X Y .+ +>         . w m.u+9.Q g g Q 2.O l                                                               ",
"              + j r.s.f o 6 t+(.(           . >.`.F.R Q f y.,.= +                                                               ",
"              w d.H.6 y.b.i ).^ M             ; (+*+1.E.Y O.v+, >                                                               ",
"              ( N ).w+u.5 Z.~.w .               2 T `.{+V W.D >.;                                                               ",
"              . R.l+m.i+6+` E M                   ( l T 5.N <.M                                                                 ",
"                . b E l !.k M                       ; / / / .                                                                   ",
"                  . M M M .                                                                                                     ",
"                                                                                                                                ",
"                                                                                                                                ",
"                                                                                                                                ",
"                                                                                                                                ",
"                                                                                                                                ",
"                                                                                                                                ",
"                                                                                                                                ",
"                                                                                                                                ",
"                                                                                                                                ",
"                                                                                                                                ",
"                                                                                                                                ",
"                                                                                                                                ",
"                                                                                                                                ",
"                                                                                                                                ",
"                                                                                                                                ",
"                                                                                                                                ",
"                                                                                                                                "};
