/* XPM */
static char * textures_xpm[] = {
"64 64 640 2",
"  	c #FFFFFF",
". 	c #FCFFFD",
"+ 	c #FDF3FA",
"@ 	c #FCE4F0",
"# 	c #FCE9F2",
"$ 	c #FDFCFE",
"% 	c #FFFEFE",
"& 	c #FEFEFE",
"* 	c #FEF1F6",
"= 	c #FAB4D8",
"- 	c #F4B5D7",
"; 	c #F3AFD3",
"> 	c #F9C6E2",
", 	c #FCF9FC",
"' 	c #FCFEFE",
") 	c #FFFEFF",
"! 	c #FEFFFE",
"~ 	c #000000",
"{ 	c #DEA8C8",
"] 	c #00FF00",
"^ 	c #F4B5D6",
"/ 	c #FBFEFD",
"( 	c #FEFFFF",
"_ 	c #FEFEFF",
": 	c #FFFDFE",
"< 	c #FAFDFE",
"[ 	c #FBF6FA",
"} 	c #FBF8FC",
"| 	c #FDFEFE",
"1 	c #D09CB8",
"2 	c #BB8DA7",
"3 	c #FBFDFD",
"4 	c #FEFEFD",
"5 	c #FDFEFB",
"6 	c #FDFFFC",
"7 	c #FDFFFE",
"8 	c #FEFDFD",
"9 	c #FDFEFD",
"0 	c #FBDFF0",
"a 	c #F6B5D9",
"b 	c #F6B0D3",
"c 	c #FDF4F8",
"d 	c #FCFCFC",
"e 	c #FAE9F3",
"f 	c #F6B4D7",
"g 	c #F4B2D6",
"h 	c #FCFBFD",
"i 	c #FCFAFB",
"j 	c #FCF3F8",
"k 	c #FBEFF7",
"l 	c #FCE8F3",
"m 	c #FEE4F3",
"n 	c #FCE1F0",
"o 	c #FBD9EB",
"p 	c #F8D2E7",
"q 	c #FAE6F2",
"r 	c #FBFAF9",
"s 	c #FDF5FA",
"t 	c #F3B0D3",
"u 	c #ECB3D1",
"v 	c #614B56",
"w 	c #FDF9FA",
"x 	c #FBF8FA",
"y 	c #F4B4D5",
"z 	c #F6B4D5",
"A 	c #FBEBF6",
"B 	c #896878",
"C 	c #F3B3D5",
"D 	c #F6B4D6",
"E 	c #F6B6D8",
"F 	c #F7B5D8",
"G 	c #F7B8D8",
"H 	c #F5AFD5",
"I 	c #F7AED4",
"J 	c #F9B6D9",
"K 	c #F6B2D6",
"L 	c #F3AFD2",
"M 	c #F5B7D8",
"N 	c #FBE8F1",
"O 	c #FDFDFC",
"P 	c #FCEEF6",
"Q 	c #F8B2D7",
"R 	c #F5B5D8",
"S 	c #FAFEFE",
"T 	c #89687B",
"U 	c #DFA8C5",
"V 	c #F3A6D3",
"W 	c #F2B4D7",
"X 	c #CE9CB7",
"Y 	c #F5B3D8",
"Z 	c #634B57",
"` 	c #F5ACD5",
" .	c #FBE7F1",
"..	c #FEF6F9",
"+.	c #F7B2D8",
"@.	c #F7B7D9",
"#.	c #FAF3FA",
"$.	c #F2A9D1",
"%.	c #F2B2D7",
"&.	c #EDB3D2",
"*.	c #F8B8D9",
"=.	c #F0B3D2",
"-.	c #F6B7DB",
";.	c #F6AED5",
">.	c #F2ADD1",
",.	c #634B58",
"'.	c #F6B3D7",
").	c #FDF6F8",
"!.	c #FCFEFC",
"~.	c #A57D91",
"{.	c #F6AFD5",
"].	c #F3B7D7",
"^.	c #BBBDBF",
"/.	c #E8E3E7",
"(.	c #F6CCE1",
"_.	c #F2B7D6",
":.	c #F5AFD2",
"<.	c #866878",
"[.	c #E7B3CF",
"}.	c #D692B6",
"|.	c #614B57",
"1.	c #F4B3D5",
"2.	c #FDFFFD",
"3.	c #FDFEFF",
"4.	c #FBF5FA",
"5.	c #A27D91",
"6.	c #BC8DA5",
"7.	c #F4A8CF",
"8.	c #F4B4D6",
"9.	c #F3B2D4",
"0.	c #9A7D8E",
"a.	c #383738",
"b.	c #B7B8B9",
"c.	c #FBDCED",
"d.	c #F6B5D7",
"e.	c #F6B2D5",
"f.	c #DC9CBF",
"g.	c #D78BB2",
"h.	c #D990B5",
"i.	c #876879",
"j.	c #FEFDFE",
"k.	c #FCF0F5",
"l.	c #F2B3D1",
"m.	c #F6B2DA",
"n.	c #F6B8D8",
"o.	c #F5B5D7",
"p.	c #E0C6D7",
"q.	c #D2CFD1",
"r.	c #FBE8F2",
"s.	c #F4AFD2",
"t.	c #E5CBDA",
"u.	c #EFD4E5",
"v.	c #F4B0D5",
"w.	c #F4B6D4",
"x.	c #876878",
"y.	c #FDFFFF",
"z.	c #FDF6FB",
"A.	c #EEB3D1",
"B.	c #F1B3D5",
"C.	c #F0B8D6",
"D.	c #796D76",
"E.	c #777675",
"F.	c #FDFAFC",
"G.	c #F3B7D5",
"H.	c #F7B4D9",
"I.	c #F6B7DA",
"J.	c #F4ABD1",
"K.	c #FDFBFD",
"L.	c #B98DA4",
"M.	c #F3B3D1",
"N.	c #E5D2DE",
"O.	c #E2E1E1",
"P.	c #FAE1EF",
"Q.	c #F4B4D7",
"R.	c #F3AAD1",
"S.	c #F3AED2",
"T.	c #FAECF2",
"U.	c #FAE0ED",
"V.	c #F7B3D6",
"W.	c #F3ADD0",
"X.	c #F1B8D6",
"Y.	c #F3ADD1",
"Z.	c #F6ACD3",
"`.	c #F0AAD1",
" +	c #F5A8D2",
".+	c #F9D9EB",
"++	c #FCF9F9",
"@+	c #F9B8DD",
"#+	c #EFB3D2",
"$+	c #F2ACD1",
"%+	c #F8D8ED",
"&+	c #FBFCFC",
"*+	c #FDFDFD",
"=+	c #A6959D",
"-+	c #DEA8C5",
";+	c #F1B5D8",
">+	c #FBE2F1",
",+	c #FBFCFE",
"'+	c #FBFCFD",
")+	c #CE9CB6",
"!+	c #F5AED2",
"~+	c #F8C5DE",
"{+	c #FBF0F6",
"]+	c #FDFEFC",
"^+	c #FDFDFE",
"/+	c #FEFFFD",
"(+	c #FCF8FA",
"_+	c #F4B2D5",
":+	c #F5ABD4",
"<+	c #F5AED6",
"[+	c #F2DEE9",
"}+	c #FCFCFD",
"|+	c #FBEDF3",
"1+	c #F5AFD3",
"2+	c #E1A8C4",
"3+	c #FDFAFE",
"4+	c #FFFEFD",
"5+	c #FCE6F1",
"6+	c #F6B3D6",
"7+	c #644B58",
"8+	c #F5B3D5",
"9+	c #FEF5FB",
"0+	c #FCE5F0",
"a+	c #F7B6D8",
"b+	c #F7B5D7",
"c+	c #BEABB4",
"d+	c #FBFEFE",
"e+	c #F7B0D5",
"f+	c #8A6879",
"g+	c #F795BF",
"h+	c #DEA8C3",
"i+	c #A47D92",
"j+	c #FCFEFD",
"k+	c #FDFDFF",
"l+	c #FDEFF7",
"m+	c #F6B5D5",
"n+	c #F471A9",
"o+	c #886879",
"p+	c #FDF6FA",
"q+	c #F6B1D4",
"r+	c #F9A3CA",
"s+	c #F473A9",
"t+	c #F595C0",
"u+	c #F68FBD",
"v+	c #FBFDFC",
"w+	c #FDFCFC",
"x+	c #F385B4",
"y+	c #F565A1",
"z+	c #F59DC6",
"A+	c #F7B7D6",
"B+	c #E2A8C4",
"C+	c #F3AACD",
"D+	c #F47AAC",
"E+	c #F488B6",
"F+	c #F5B7D7",
"G+	c #A7959F",
"H+	c #A8959F",
"I+	c #F3AED4",
"J+	c #F8AED2",
"K+	c #F685B3",
"L+	c #F474A8",
"M+	c #F379AB",
"N+	c #F690BB",
"O+	c #F6B2D2",
"P+	c #F4B0D4",
"Q+	c #FEF1F9",
"R+	c #FCFAFC",
"S+	c #F8B3D9",
"T+	c #F7B6D7",
"U+	c #FAC9E4",
"V+	c #FAE6F0",
"W+	c #F5AED4",
"X+	c #A37D90",
"Y+	c #F8F4F8",
"Z+	c #F7D4E3",
"`+	c #F5A8CF",
" @	c #EFB3D1",
".@	c #F5A4C7",
"+@	c #F8E3EA",
"@@	c #FCFDFC",
"#@	c #FAF8FA",
"$@	c #F6948C",
"%@	c #F4747D",
"&@	c #F3A5CB",
"*@	c #F1A0BB",
"=@	c #CD4946",
"-@	c #F7A399",
";@	c #FBFDFE",
">@	c #F7CFC9",
",@	c #F44132",
"'@	c #DE6B6C",
")@	c #F494AC",
"!@	c #F5A7D0",
"~@	c #F3B2D6",
"{@	c #B98DA5",
"]@	c #896879",
"^@	c #F5ABD2",
"/@	c #F99FBF",
"(@	c #F48798",
"_@	c #F44032",
":@	c #F9D4D3",
"<@	c #FCFDFF",
"[@	c #FDF9FE",
"}@	c #FCF2F9",
"|@	c #F5999A",
"1@	c #F4564C",
"2@	c #BA5758",
"3@	c #FA8A99",
"4@	c #F497B3",
"5@	c #F2A0C4",
"6@	c #F3A4C6",
"7@	c #F3A7CE",
"8@	c #F5A7CC",
"9@	c #F4A1C3",
"0@	c #F29DB9",
"a@	c #F48C9F",
"b@	c #F87C82",
"c@	c #F2534B",
"d@	c #F87974",
"e@	c #FEF3F7",
"f@	c #FEFBFE",
"g@	c #FDF1F8",
"h@	c #FCDFF0",
"i@	c #FBD3EB",
"j@	c #FACBDD",
"k@	c #F496A2",
"l@	c #F43C2F",
"m@	c #F7B2BD",
"n@	c #FBD6ED",
"o@	c #FCE2EE",
"p@	c #FDF4F9",
"q@	c #FEF9FD",
"r@	c #FADCEC",
"s@	c #FBDAED",
"t@	c #FCEDF6",
"u@	c #FEEAF5",
"v@	c #FCD8EC",
"w@	c #F8D1E6",
"x@	c #F5DAE9",
"y@	c #F9E7F2",
"z@	c #FB8480",
"A@	c #F15345",
"B@	c #F75044",
"C@	c #F7817B",
"D@	c #FAE7F1",
"E@	c #FAD9ED",
"F@	c #F9D2E8",
"G@	c #FBD9EC",
"H@	c #FDEDF6",
"I@	c #FCEAF5",
"J@	c #F9D8EA",
"K@	c #FADCED",
"L@	c #FFFCFF",
"M@	c #FCF2F6",
"N@	c #FAD0E7",
"O@	c #FAD2E6",
"P@	c #F8E2ED",
"Q@	c #FCF5F7",
"R@	c #FCFBFA",
"S@	c #FBE7E4",
"T@	c #F54436",
"U@	c #F7453A",
"V@	c #FAEBE3",
"W@	c #FCF1F6",
"X@	c #FBDFED",
"Y@	c #FBD2E7",
"Z@	c #FACFE6",
"`@	c #F8DEE9",
" #	c #FCF3F7",
".#	c #F7E3EF",
"+#	c #FCD3EA",
"@#	c #F9CFE4",
"##	c #FCECF5",
"$#	c #FAFDFD",
"%#	c #F8BDB7",
"&#	c #F74238",
"*#	c #F33F31",
"=#	c #F7C1BB",
"-#	c #FAFDFC",
";#	c #FDFBFC",
">#	c #FCE6F2",
",#	c #FACEE5",
"'#	c #FBD1E7",
")#	c #FDFCFD",
"!#	c #FDDFEE",
"~#	c #FEEAF6",
"{#	c #F9DCEA",
"]#	c #FCFBFC",
"^#	c #FAFCFA",
"/#	c #F8867D",
"(#	c #F6564C",
"_#	c #F44F44",
":#	c #F78784",
"<#	c #FDF8FC",
"[#	c #FADAE9",
"}#	c #FCECF7",
"|#	c #F8DEEB",
"1#	c #FBF2F1",
"2#	c #F34E45",
"3#	c #62211C",
"4#	c #FCF7F4",
"5#	c #FDF8FA",
"6#	c #FDF6F9",
"7#	c #FCD9D7",
"8#	c #F53D31",
"9#	c #F43D30",
"0#	c #FDE1DC",
"a#	c #FEFEFC",
"b#	c #FCF2F8",
"c#	c #F8D5E6",
"d#	c #F9D3E5",
"e#	c #FDEEF6",
"f#	c #F7C0BA",
"g#	c #F84639",
"h#	c #F43F31",
"i#	c #F8C4C2",
"j#	c #FCF6FB",
"k#	c #FCF4FB",
"l#	c #FCE9F3",
"m#	c #FBD7EA",
"n#	c #FBDCEE",
"o#	c #FBDFEC",
"p#	c #F89C94",
"q#	c #F45144",
"r#	c #F74C40",
"s#	c #F8A6A2",
"t#	c #F9E8F3",
"u#	c #FAD5E9",
"v#	c #FDDFEF",
"w#	c #F8D7EB",
"x#	c #FBDAEB",
"y#	c #CE4941",
"z#	c #F6564B",
"A#	c #F7847A",
"B#	c #FBFCFA",
"C#	c #FFF9FE",
"D#	c #FBDDED",
"E#	c #F9D4E6",
"F#	c #F8D3E6",
"G#	c #FADDEC",
"H#	c #FBD9E5",
"I#	c #F14C49",
"J#	c #883029",
"K#	c #FEF6F4",
"L#	c #FCFFFE",
"M#	c #FEFCFE",
"N#	c #FEFAFE",
"O#	c #FDFAFD",
"P#	c #FBFCFB",
"Q#	c #FBE7E2",
"R#	c #F53F34",
"S#	c #F43C33",
"T#	c #FCEEEC",
"U#	c #FDFDFB",
"V#	c #FAD9D3",
"W#	c #F53A2E",
"X#	c #F13428",
"Y#	c #FCE3DD",
"Z#	c #FFFDFC",
"`#	c #F8C0BF",
" $	c #F74333",
".$	c #F43F2F",
"+$	c #FBCDC5",
"@$	c #F5B2AC",
"#$	c #F7372B",
"$$	c #F74537",
"%$	c #F54839",
"&$	c #F6483A",
"*$	c #F64A3B",
"=$	c #F44A3E",
"-$	c #F64C43",
";$	c #F74F47",
">$	c #F85146",
",$	c #F55246",
"'$	c #F75549",
")$	c #F6554A",
"!$	c #F8574B",
"~$	c #F65449",
"{$	c #BB423A",
"]$	c #DE4F46",
"^$	c #EF554A",
"/$	c #DF5146",
"($	c #E05146",
"_$	c #E04F48",
":$	c #F7554C",
"<$	c #F6554C",
"[$	c #F5574A",
"}$	c #F85148",
"|$	c #F45145",
"1$	c #F44B3C",
"2$	c #F53F2D",
"3$	c #F6C1B5",
"4$	c #FCFDFE",
"5$	c #F8F2EC",
"6$	c #F9D4D2",
"7$	c #F8D0D0",
"8$	c #FAD0D0",
"9$	c #F9D1D0",
"0$	c #FBD1D1",
"a$	c #FDCED0",
"b$	c #F9B7BE",
"c$	c #FAB8BC",
"d$	c #FACAC5",
"e$	c #F9C1BD",
"f$	c #FABFBC",
"g$	c #F9C0BD",
"h$	c #F8BBB8",
"i$	c #ECADAA",
"j$	c #E6ACA7",
"k$	c #EFB4AE",
"l$	c #F7BEBD",
"m$	c #FBBEBE",
"n$	c #F7A6B2",
"o$	c #F7ACB3",
"p$	c #F7BDBB",
"q$	c #F9BFBE",
"r$	c #FBC1C0",
"s$	c #FDC9C6",
"t$	c #FCCCC8",
"u$	c #FBD2CE",
"v$	c #FAD7D4",
"w$	c #F8F3F1",
"x$	c #F8D9EA",
"y$	c #FAE4F0",
"z$	c #FBFDFB",
"A$	c #FBE3F1",
"B$	c #FFFFFD",
"C$	c #F9DAEA",
"D$	c #FBE5F1",
"E$	c #FFFDFF",
"F$	c #FCFDFB",
"G$	c #FCDCED",
"H$	c #FAE3EF",
"I$	c #FAF7F9",
"J$	c #F8D7E8",
"K$	c #F8E0EB",
"L$	c #EFEFF0",
"M$	c #EAEAEA",
"N$	c #E7E7E7",
"O$	c #E3E4E4",
"P$	c #E3E4E3",
"Q$	c #E3E3E3",
"R$	c #E3E4E2",
"S$	c #E5E5E5",
"T$	c #F8D6E7",
"U$	c #F2DBE8",
"V$	c #ECEDEE",
"W$	c #EFF0F0",
"X$	c #F4F5F4",
"Y$	c #F8F8F8",
"Z$	c #EEEEEE",
"`$	c #DBDCDC",
" %	c #D0D2D1",
".%	c #C6CAC8",
"+%	c #CAC3C6",
"@%	c #F8D1E4",
"#%	c #DFCAD3",
"$%	c #B9BCBE",
"%%	c #B0AFB0",
"&%	c #A8AAA9",
"*%	c #A7A8A8",
"=%	c #B8BAB9",
"-%	c #C2C4C3",
";%	c #C0C2C1",
">%	c #C0C1C0",
",%	c #C3C1C1",
"'%	c #F1D0E0",
")%	c #E1CAD6",
"!%	c #BBBFBE",
"~%	c #B0B2B1",
"{%	c #AAABAB",
"]%	c #AAACAB",
"^%	c #BCBEBD",
"/%	c #CECECE",
"(%	c #DBDBDB",
"_%	c #E9E9E9",
":%	c #F7F7F7",
"<%	c #FBFBFB",
"[%	c #CDCDCD",
"}%	c #C1C1C1",
"|%	c #BFC1C0",
"1%	c #B3B2B3",
"2%	c #7F727A",
"3%	c #453F42",
"4%	c #212324",
"5%	c #131414",
"6%	c #080A09",
"7%	c #070908",
"8%	c #363737",
"9%	c #B8B7B7",
"0%	c #7B7176",
"a%	c #4C4448",
"b%	c #222422",
"c%	c #141514",
"d%	c #060807",
"e%	c #2E2F2F",
"f%	c #B5B6B6",
"g%	c #C0C0C0",
"h%	c #C5C5C5",
"i%	c #E4E4E4",
"j%	c #C2C2C2",
"k%	c #BCBCBC",
"l%	c #808080",
"m%	c #696969",
"n%	c #626262",
"o%	c #5D5E5D",
"p%	c #575958",
"q%	c #575857",
"r%	c #838584",
"s%	c #C1C3C2",
"t%	c #818382",
"u%	c #6A6C6B",
"v%	c #5B5D5C",
"w%	c #595959",
"x%	c #7E7E7E",
"y%	c #BDBDBD",
"z%	c #C3C3C3",
"A%	c #C7C7C7",
"B%	c #D6D6D6",
"C%	c #F2F2F2",
"D%	c #F1F1F1",
"E%	c #E1E1E1",
"F%	c #DDDDDD",
"G%	c #D5D5D5",
"H%	c #D0D0D0",
"I%	c #CBCDCC",
"J%	c #C8CAC9",
"K%	c #C4C6C5",
"L%	c #C7C9C8",
"M%	c #C5C7C6",
"N%	c #C6C8C7",
"O%	c #C9CBCA",
"P%	c #CCCECD",
"Q%	c #CFD1D0",
"R%	c #D1D2D2",
"S%	c #D5D7D6",
"T%	c #DFDFDF",
"U%	c #EDEDED",
"V%	c #F6F6F6",
"W%	c #FCFDFD",
"                                                                                                                                ",
"                                                                                                                                ",
"                                                                                                                                ",
"                                                                                                                                ",
"                                                      . + @ # $ % &                                                             ",
"                                                      * = - ; > , '                                                             ",
"                                          ) ! )       ~ { ] ] ^ ~ /                   ( ( ) _                                   ",
"                                        : < [ } $ | _ ~ 1 ] ] ] 2 3     ( _ & 4 % 5 6 7 _ % 8 9                                 ",
"                                        | 0 a b ~ c d e f ] ] ] g h !   | i j k l m n o p p q r                                 ",
"                                        s t ] ] u v w x y ] ] ] z A ] ] B C D E F G H I J K L M N O                             ",
"                                        P Q ] ] ] R o S ~ T ] U V W X ] ] ] ] ] ] ] Y ] ] ] ] Z `  .                            ",
"                                        ..+.] ] ] ] @.#.~ $.%.&.] ] ] *.=.-.;.] ] ] >.] ] ] ] ] ,.'.).9 (                       ",
"                                        !.~ ~.] ] ] ;.{.- ] ] ] ] ] ] ].^./.(._.] ] :.] <.[.] }.|.1.~ 2.3.                      ",
"                                        % 4.5.] ] 6.7.5.] ] 8.] 9.,.] 0.a.b.c.d.] ] e.] f.g.] h.] i.~ j._                       ",
"                                        & S k.l.m.n.] ] ] o.p.q.r.; ] s.t.u.v.] ] ] ,.w.] ] ] ] ] ] x.j.(                       ",
"                                        y.& z.A.B.] ] ] ] C.D.E.F.G.] ] H.I.] ] ] ] ] J.] ] ] ] ] X ~ _ |                       ",
"                                        4 K.~ L.] ] ] ] ] M.N.O.P.Q.] ] ] ] ] ] ] ] ] ] R.] ] ] ] S.T./ )                       ",
"                                        j.U.V.] ] ] ] ] ] ] W.X.9.] ] ] ] ] ] ] ] ] ] ] ] Y.Z.`. +.+| | )                       ",
"                                    &   ++@+] ] ] ] ] ] ] ] ] ] ] ] ] ] ] ] ] ] ] ] ] ] ] ] #+$+%+&+% )                         ",
"                                      *+=+-+] ] ] ] ] ] ] ] ] ] ] ] ] ] ] ] ] ] ] ] ] ] ] ;+; >+,+|                             ",
"                                    & '+] ] ] ] ] ] 6.] ] ] ] ] ] ] ] ] ] ] ] ] ] ] ] )+!+~+{+]+! ^+                            ",
"                                    /+(+_+] ] ] ] ] ] ] ] ] ] ] ] ] ] ] ] ] ] ] ] :+<+~ [+}+& *+                                ",
"                                    ! |+1+] ] ] ] ] ] ] ] ] ] ] ] ] ] ] ] ] ] ] ] 2+~ 3+9 4+  &                                 ",
"                                    ( 5+6+] 7+] ] ] ] ] ] ] ] ] ] ] ] ] ] ] ] ] ] ] 8+9+( %                                     ",
"                                    ( 0+a+] ] ] ] ] ] ] ] ] ] ] ] ] ] ] ] ] ] ] ] ] b+c+d+:                                     ",
"                                    _ l e+] ] ] ] ] ] ] f+] ] ] ] ] ] ] ] ] ] g+h+] i+~ j+k+                                    ",
"                                    j.l+I ] ] ] 6.] ] 6.] ] m+f+] ] ] ] ] ] ] n+] ] o+~ *+3.                                    ",
"                                    ^+p+q+] ] ] ] ] ] ] ] ] r+s+] ] ] ] ] ] t+u+] ] o+~ v+!                                     ",
"                                    3.w+~ 6.] ] ] ] ] ] ] ] ] x+y+z+A+B+C+D+E+] ] ] F+G+j+/+                                    ",
"                                    _ | H+I+] ] ] ] ] ] ] ] ] ] J+K+L+M+N+O+] ] ] ] P+Q+& !                                     ",
"                                        R+S+6.] ] ] ] ] ] ] ] ] ] ] ] ] ] ] ] ] ] T+U+3.                                        ",
"                                        9 V+W+] ] ] ] ] ] ] ] ] ] ] ] ] ] ] ] ] X+f Y+4                                         ",
"                                        8 < Z+`+] ] ] ] ] ] ] ] ] ] ] ] ] ] ]  @.@+@@@4                                         ",
"                                        | #@$@%@&@y ] ] ] ] ] ] ] ] ] ] ] ,.J.*@=@-@i y.                                        ",
"                                    ) & ;@>@,@] '@)@!@~@{@] ] ] ] ] ]@F ^@/@(@] ] _@:@@@|                                       ",
"                                    <@[@}@|@1@] ] ] 2@3@4@5@6@7@8@9@0@a@b@] ] ] ] c@d@e@f@_                                     ",
"                      ! % 3.( _ w+g@h@i@j@k@] ] ] ] ] ] ] ] ] ] ] ] ] ] ] ] ] ] ] ] l@m@n@o@p@O ( _ *+8 &                       ",
"                      q@r@s@t@u@v@w@x@y@z@A@] ] ] ] ] ] ] ] ] ] ] ] ] ] ] ] ] ] ] ] B@C@D@E@F@G@H@I@J@K@L@                      ",
"                      O M@r@N@O@P@Q@R@S@T@] ] ] ] ] ] ] ] ] ] ] ] ] ] ] ] ] ] ] ] ] ] U@V@i W@X@Y@Z@`@ #&                       ",
"                      : .#+#@###*+& $#%#&#] ] ] ] ] ] ] ] ] ] ] ] ] ] ] ] ] ] ] ] ] ] *#=#-#& ;#>#,#'# ._                       ",
"                      )#!#~#{#]#  & ^#/#(#] ] ] ] ] ] ] ] ] ] ] ] ] ] ] ] ] ] ] ] ] ] _#:#j+  | <#[#}#|#)                       ",
"                          & d 3.y.| 1#2#] ] ] ] ] ] ] ] ] ] ] ] ] ] ] ] ] ] ] ] ] ] ] 3#B@4#    & d                             ",
"                          & j.5#6#: 7#8#] ] ] ] ] ] ] ] ] ] ] ] ] ] ] ] ] ] ] ] ] ] ] ] 9#0#      &                             ",
"                      a#& 3.b#c#d#e#f#g#] ] ] ] ] ] ] ] ] ] ] ] ] ] ] ] ] ] ] ] ] ] ] ] h#i#^+<@                                ",
"                      8 j#k#l#m#n#o#p#q#] ] ] ] ] ] ] ] ] ] ] ] ] ] ] ] ] ] ] ] ] ] ] ] r#s#3 ^+                                ",
"                      _ t#u#v#u#w#x#~ y#] ] ] ] ] ] ] ] ] ] ] ] ] ] ] ] ] ] ] ] ] ] ] ] z#A#B#$#                                ",
"                        C#D#E#F#G#H#I#] ] ] ] ] ] ] ] ] ] ] ] ] ] ] ] ] ] ] ] ] ] ] ] ] J#~ K#|                                 ",
"                      a#L#M#N#O#P#Q#R#] ] ] ] ] ] ] ] ] ] ] ] ] ] ] ] ] ] ] ] ] ] ] ] ] ] S#T#8                                 ",
"                                U#V#W#] ] ] ] ] ] ] ] ] ] ] ] ] ] ] ] ] ] ] ] ] ] ] ] ] ] X#Y#Z#                                ",
"                                &+`# $] ] ] ] ] ] ] ] ] ] ] ] ] ] ] ] ] ] ] ] ] ] ] ] ] ] .$+$<@                                ",
"                                $#@$#$$$%$&$*$=$-$;$>$,$'$)$!$~${$]$^$/$($y#_$:$<$[$}$|$1$2$3$8                                 ",
"                                4$5$6$7$8$9$0$a$b$c$d$e$f$g$h$i$j$k$l$m$n$o$p$q$q$r$s$t$u$v$w$$                                 ",
"                                _ | & ! 2.2.7 ^+x$y$_ 4 4 4 4 4 j.j.z$d s@A$_ % %   ) ( & : ! B$                                ",
"                                              : C$D$E$!             F$3 G$H$_                                                   ",
"                                & &   &   & @@I$J$K$L$M$N$O$P$Q$Q$Q$R$S$T$U$V$W$X$Y$d &   & &                                   ",
"                                  & d Z$`$ %.%+%@%#%$%%%&%*%=%-%;%;%>%,%'%)%!%~%{%]%^%/%(%_%:%&                                 ",
"                                & <%[%}%>%;%|%1%2%3%4%5%6%7%8%=%;%;%;%9%0%a%b%c%d%7%e%f%}%g%h%i%                                ",
"                                & d N$/%j%}%g%k%l%m%n%o%p%q%r%|%s%s%;%^%t%u%o%v%q%w%x%y%z%A%B%C%                                ",
"                                *+& & & Y$D%N$E%F%G%H%I%J%K%L%M%K%K%N%M%O%P%Q%R%S%T%N$U%V%d & &                                 ",
"                                    &           &   & *+*+*+*+W%W%W%*+W%*+9 &                                                   ",
"                                                                                                                                ",
"                                                                                                                                ",
"                                                                                                                                ",
"                                                                                                                                "};
