/* XPM */
static char * texturen_xpm[] = {
"64 64 630 2",
"  	c #FFFFFF",
". 	c #FCFFFD",
"+ 	c #FDF3FA",
"@ 	c #FCE4F0",
"# 	c #FCE9F2",
"$ 	c #FDFCFE",
"% 	c #FFFEFE",
"& 	c #FEFEFE",
"* 	c #FEF1F6",
"= 	c #FAB4D8",
"- 	c #F4B5D7",
"; 	c #F3AFD3",
"> 	c #F9C6E2",
", 	c #FCF9FC",
"' 	c #FCFEFE",
") 	c #FFFEFF",
"! 	c #FEFFFE",
"~ 	c #F7CAE4",
"{ 	c #F4B5D6",
"] 	c #FBFEFD",
"^ 	c #FEFFFF",
"/ 	c #FEFEFF",
"( 	c #FFFDFE",
"_ 	c #FAFDFE",
": 	c #FBF6FA",
"< 	c #FBF8FC",
"[ 	c #FDFEFE",
"} 	c #FBD5E9",
"| 	c #FBDFEE",
"1 	c #FBFDFD",
"2 	c #FEFEFD",
"3 	c #FDFEFB",
"4 	c #FDFFFC",
"5 	c #FDFFFE",
"6 	c #FEFDFD",
"7 	c #FDFEFD",
"8 	c #FBDFF0",
"9 	c #F6B5D9",
"0 	c #F6B0D3",
"a 	c #FDF4F8",
"b 	c #FCFCFC",
"c 	c #FAE9F3",
"d 	c #F6B4D7",
"e 	c #F4B2D6",
"f 	c #FCFBFD",
"g 	c #FCFAFB",
"h 	c #FCF3F8",
"i 	c #FBEFF7",
"j 	c #FCE8F3",
"k 	c #FEE4F3",
"l 	c #FCE1F0",
"m 	c #FBD9EB",
"n 	c #F8D2E7",
"o 	c #FAE6F2",
"p 	c #FBFAF9",
"q 	c #FDF5FA",
"r 	c #F3B0D3",
"s 	c #F4BFDA",
"t 	c #FEF8FA",
"u 	c #FDF9FA",
"v 	c #FBF8FA",
"w 	c #F4B4D5",
"x 	c #F6B4D5",
"y 	c #FBEBF6",
"z 	c #FDF0F6",
"A 	c #F3B3D5",
"B 	c #F6B4D6",
"C 	c #F6B6D8",
"D 	c #F7B5D8",
"E 	c #F7B8D8",
"F 	c #F5AFD5",
"G 	c #F7AED4",
"H 	c #F9B6D9",
"I 	c #F6B2D6",
"J 	c #F3AFD2",
"K 	c #F5B7D8",
"L 	c #FBE8F1",
"M 	c #FDFDFC",
"N 	c #FCEEF6",
"O 	c #F8B2D7",
"P 	c #F5B5D8",
"Q 	c #FAFEFE",
"R 	c #FDF0F7",
"S 	c #F8CAE2",
"T 	c #F3A6D3",
"U 	c #F2B4D7",
"V 	c #FAD5E8",
"W 	c #F5B3D8",
"X 	c #FEF8FB",
"Y 	c #F5ACD5",
"Z 	c #FBE7F1",
"` 	c #FEF6F9",
" .	c #F7B2D8",
"..	c #F7B7D9",
"+.	c #FAF3FA",
"@.	c #F2A9D1",
"#.	c #F2B2D7",
"$.	c #F5BFDC",
"%.	c #F8B8D9",
"&.	c #F8BFDC",
"*.	c #F6B7DB",
"=.	c #F6AED5",
"-.	c #F2ADD1",
";.	c #F6B3D7",
">.	c #FDF6F8",
",.	c #FCFEFC",
"'.	c #FCE8F1",
").	c #F6AFD5",
"!.	c #F3B7D7",
"~.	c #BBBDBF",
"{.	c #E8E3E7",
"].	c #F6CCE1",
"^.	c #F2B7D6",
"/.	c #F5AFD2",
"(.	c #FCF0F6",
"_.	c #EFBFD8",
":.	c #D692B6",
"<.	c #FDF8FB",
"[.	c #F4B3D5",
"}.	c #FDFFFD",
"|.	c #FDFEFF",
"1.	c #FBF5FA",
"2.	c #FBDFED",
"3.	c #F4A8CF",
"4.	c #F4B4D6",
"5.	c #F3B2D4",
"6.	c #F6E8F0",
"7.	c #383738",
"8.	c #B7B8B9",
"9.	c #FBDCED",
"0.	c #F6B5D7",
"a.	c #F6B2D5",
"b.	c #DC9CBF",
"c.	c #D78BB2",
"d.	c #D990B5",
"e.	c #FCF0F7",
"f.	c #FEFDFE",
"g.	c #FCF0F5",
"h.	c #F9BFDA",
"i.	c #F6B2DA",
"j.	c #F6B8D8",
"k.	c #F5B5D7",
"l.	c #E0C6D7",
"m.	c #EDEAEC",
"n.	c #FBE8F2",
"o.	c #F4AFD2",
"p.	c #E5CBDA",
"q.	c #EFD4E5",
"r.	c #F4B0D5",
"s.	c #F4B6D4",
"t.	c #FDFFFF",
"u.	c #FDF6FB",
"v.	c #F6BFDB",
"w.	c #F1B3D5",
"x.	c #F0B8D6",
"y.	c #796D76",
"z.	c #777675",
"A.	c #FDFAFC",
"B.	c #F3B7D5",
"C.	c #F7B4D9",
"D.	c #F6B7DA",
"E.	c #F4ABD1",
"F.	c #F9D5E8",
"G.	c #FDFBFD",
"H.	c #FADFEC",
"I.	c #F3B3D1",
"J.	c #E5D2DE",
"K.	c #E2E1E1",
"L.	c #FAE1EF",
"M.	c #F4B4D7",
"N.	c #F3AAD1",
"O.	c #F3AED2",
"P.	c #FAECF2",
"Q.	c #FAE0ED",
"R.	c #F7B3D6",
"S.	c #F3ADD0",
"T.	c #F1B8D6",
"U.	c #F3ADD1",
"V.	c #F6ACD3",
"W.	c #F0AAD1",
"X.	c #F5A8D2",
"Y.	c #F9D9EB",
"Z.	c #FCF9F9",
"`.	c #F9B8DD",
" +	c #F7BFDC",
".+	c #F2ACD1",
"++	c #F8D8ED",
"@+	c #FBFCFC",
"#+	c #FDFDFD",
"$+	c #F7CAE2",
"%+	c #F1B5D8",
"&+	c #FBE2F1",
"*+	c #FBFCFE",
"=+	c #FBFCFD",
"-+	c #FCDFEC",
";+	c #F9D5E7",
">+	c #F5AED2",
",+	c #F8C5DE",
"'+	c #FBF0F6",
")+	c #FDFEFC",
"!+	c #FDFDFE",
"~+	c #FEFFFD",
"{+	c #FCF8FA",
"]+	c #F4B2D5",
"^+	c #F5ABD4",
"/+	c #F5AED6",
"(+	c #F9E7F1",
"_+	c #FCFCFD",
":+	c #FBEDF3",
"<+	c #F5AFD3",
"[+	c #F9CAE1",
"}+	c #FDFAFE",
"|+	c #FFFEFD",
"1+	c #FCE6F1",
"2+	c #F6B3D6",
"3+	c #F5B3D5",
"4+	c #FEF5FB",
"5+	c #FCE5F0",
"6+	c #F7B6D8",
"7+	c #F7B5D7",
"8+	c #FBFEFE",
"9+	c #F7B0D5",
"0+	c #FEF0F7",
"a+	c #F795BF",
"b+	c #F7CAE0",
"c+	c #FCE8F2",
"d+	c #FCFEFD",
"e+	c #FDFDFF",
"f+	c #FDEFF7",
"g+	c #FCDFED",
"h+	c #F6B5D5",
"i+	c #F471A9",
"j+	c #FDF6FA",
"k+	c #F6B1D4",
"l+	c #F9A3CA",
"m+	c #F473A9",
"n+	c #F595C0",
"o+	c #F68FBD",
"p+	c #FBFDFC",
"q+	c #FDFCFC",
"r+	c #F385B4",
"s+	c #F565A1",
"t+	c #F59DC6",
"u+	c #F7B7D6",
"v+	c #FACAE1",
"w+	c #F3AACD",
"x+	c #F47AAC",
"y+	c #F488B6",
"z+	c #F5B7D7",
"A+	c #FDF4F9",
"B+	c #FEF4F9",
"C+	c #F3AED4",
"D+	c #F8AED2",
"E+	c #F685B3",
"F+	c #F474A8",
"G+	c #F379AB",
"H+	c #F690BB",
"I+	c #F6B2D2",
"J+	c #F4B0D4",
"K+	c #FEF1F9",
"L+	c #FCFAFC",
"M+	c #F8B3D9",
"N+	c #F7B6D7",
"O+	c #FAC9E4",
"P+	c #FAE6F0",
"Q+	c #F5AED4",
"R+	c #F8F4F8",
"S+	c #F7D4E3",
"T+	c #F5A8CF",
"U+	c #F7BFDA",
"V+	c #F5A4C7",
"W+	c #F8E3EA",
"X+	c #FCFDFC",
"Y+	c #FAF8FA",
"Z+	c #F6948C",
"`+	c #F4747D",
" @	c #F3A5CB",
".@	c #F1A0BB",
"+@	c #F8AAA9",
"@@	c #F7A399",
"#@	c #FBFDFE",
"$@	c #F7CFC9",
"%@	c #F44132",
"&@	c #F79FA0",
"*@	c #F494AC",
"=@	c #F5A7D0",
"-@	c #F3B2D6",
";@	c #F5ABD2",
">@	c #F99FBF",
",@	c #F48798",
"'@	c #F44032",
")@	c #F9D4D3",
"!@	c #FCFDFF",
"~@	c #FDF9FE",
"{@	c #FCF2F9",
"]@	c #F5999A",
"^@	c #F4564C",
"/@	c #FAC6C6",
"(@	c #FA8A99",
"_@	c #F497B3",
":@	c #F2A0C4",
"<@	c #F3A4C6",
"[@	c #F3A7CE",
"}@	c #F5A7CC",
"|@	c #F4A1C3",
"1@	c #F29DB9",
"2@	c #F48C9F",
"3@	c #F87C82",
"4@	c #F2534B",
"5@	c #F87974",
"6@	c #FEF3F7",
"7@	c #FEFBFE",
"8@	c #FDF1F8",
"9@	c #FCDFF0",
"0@	c #FBD3EB",
"a@	c #FACBDD",
"b@	c #F496A2",
"c@	c #F43C2F",
"d@	c #F7B2BD",
"e@	c #FBD6ED",
"f@	c #FCE2EE",
"g@	c #FEF9FD",
"h@	c #FADCEC",
"i@	c #FBDAED",
"j@	c #FCEDF6",
"k@	c #FEEAF5",
"l@	c #FCD8EC",
"m@	c #F8D1E6",
"n@	c #F5DAE9",
"o@	c #F9E7F2",
"p@	c #FB8480",
"q@	c #F15345",
"r@	c #F75044",
"s@	c #F7817B",
"t@	c #FAE7F1",
"u@	c #FAD9ED",
"v@	c #F9D2E8",
"w@	c #FBD9EC",
"x@	c #FDEDF6",
"y@	c #FCEAF5",
"z@	c #F9D8EA",
"A@	c #FADCED",
"B@	c #FFFCFF",
"C@	c #FCF2F6",
"D@	c #FAD0E7",
"E@	c #FAD2E6",
"F@	c #F8E2ED",
"G@	c #FCF5F7",
"H@	c #FCFBFA",
"I@	c #FBE7E4",
"J@	c #F54436",
"K@	c #F7453A",
"L@	c #FAEBE3",
"M@	c #FCF1F6",
"N@	c #FBD2E7",
"O@	c #FACFE6",
"P@	c #F8DEE9",
"Q@	c #FCF3F7",
"R@	c #F7E3EF",
"S@	c #FCD3EA",
"T@	c #F9CFE4",
"U@	c #FCECF5",
"V@	c #FAFDFD",
"W@	c #F8BDB7",
"X@	c #F74238",
"Y@	c #F33F31",
"Z@	c #F7C1BB",
"`@	c #FAFDFC",
" #	c #FDFBFC",
".#	c #FCE6F2",
"+#	c #FACEE5",
"@#	c #FBD1E7",
"##	c #FDFCFD",
"$#	c #FDDFEE",
"%#	c #FEEAF6",
"&#	c #F9DCEA",
"*#	c #FCFBFC",
"=#	c #FAFCFA",
"-#	c #F8867D",
";#	c #F6564C",
">#	c #F44F44",
",#	c #F78784",
"'#	c #FDF8FC",
")#	c #FADAE9",
"!#	c #FCECF7",
"~#	c #F8DEEB",
"{#	c #FBF2F1",
"]#	c #F34E45",
"^#	c #FEF1F1",
"/#	c #FCF7F4",
"(#	c #FDF8FA",
"_#	c #FDF6F9",
":#	c #FCD9D7",
"<#	c #F53D31",
"[#	c #F43D30",
"}#	c #FDE1DC",
"|#	c #FEFEFC",
"1#	c #FCF2F8",
"2#	c #F8D5E6",
"3#	c #F9D3E5",
"4#	c #FDEEF6",
"5#	c #F7C0BA",
"6#	c #F84639",
"7#	c #F43F31",
"8#	c #F8C4C2",
"9#	c #FCF6FB",
"0#	c #FCF4FB",
"a#	c #FCE9F3",
"b#	c #FBD7EA",
"c#	c #FBDCEE",
"d#	c #FBDFEC",
"e#	c #F89C94",
"f#	c #F45144",
"g#	c #F74C40",
"h#	c #F8A6A2",
"i#	c #F9E8F3",
"j#	c #FAD5E9",
"k#	c #FDDFEF",
"l#	c #F8D7EB",
"m#	c #FBDAEB",
"n#	c #F9AAA7",
"o#	c #F6564B",
"p#	c #F7847A",
"q#	c #FBFCFA",
"r#	c #FFF9FE",
"s#	c #FBDDED",
"t#	c #F9D4E6",
"u#	c #F8D3E6",
"v#	c #FADDEC",
"w#	c #FBD9E5",
"x#	c #F14C49",
"y#	c #FDE2E1",
"z#	c #FEF6F4",
"A#	c #FCFFFE",
"B#	c #FEFCFE",
"C#	c #FEFAFE",
"D#	c #FDFAFD",
"E#	c #FBFCFB",
"F#	c #FBE7E2",
"G#	c #F53F34",
"H#	c #F43C33",
"I#	c #FCEEEC",
"J#	c #FDFDFB",
"K#	c #FAD9D3",
"L#	c #F53A2E",
"M#	c #F13428",
"N#	c #FCE3DD",
"O#	c #FFFDFC",
"P#	c #F8C0BF",
"Q#	c #F74333",
"R#	c #F43F2F",
"S#	c #FBCDC5",
"T#	c #F5B2AC",
"U#	c #F7372B",
"V#	c #F74537",
"W#	c #F54839",
"X#	c #F6483A",
"Y#	c #F64A3B",
"Z#	c #F44A3E",
"`#	c #F64C43",
" $	c #F74F47",
".$	c #F85146",
"+$	c #F55246",
"@$	c #F75549",
"#$	c #F6554A",
"$$	c #F8574B",
"%$	c #F65449",
"&$	c #FBBFBD",
"*$	c #F7908C",
"=$	c #F76F67",
"-$	c #F8918C",
";$	c #F9918C",
">$	c #FAAAA7",
",$	c #F9908C",
"'$	c #F7554C",
")$	c #F6554C",
"!$	c #F5574A",
"~$	c #F85148",
"{$	c #F45145",
"]$	c #F44B3C",
"^$	c #F53F2D",
"/$	c #F6C1B5",
"($	c #FCFDFE",
"_$	c #F8F2EC",
":$	c #F9D4D2",
"<$	c #F8D0D0",
"[$	c #FAD0D0",
"}$	c #F9D1D0",
"|$	c #FBD1D1",
"1$	c #FDCED0",
"2$	c #F9B7BE",
"3$	c #FAB8BC",
"4$	c #FACAC5",
"5$	c #F9C1BD",
"6$	c #FABFBC",
"7$	c #F9C0BD",
"8$	c #F8BBB8",
"9$	c #ECADAA",
"0$	c #E6ACA7",
"a$	c #EFB4AE",
"b$	c #F7BEBD",
"c$	c #FBBEBE",
"d$	c #F7A6B2",
"e$	c #F7ACB3",
"f$	c #F7BDBB",
"g$	c #F9BFBE",
"h$	c #FBC1C0",
"i$	c #FDC9C6",
"j$	c #FCCCC8",
"k$	c #FBD2CE",
"l$	c #FAD7D4",
"m$	c #F8F3F1",
"n$	c #F8D9EA",
"o$	c #FAE4F0",
"p$	c #FBFDFB",
"q$	c #FBE3F1",
"r$	c #FFFFFD",
"s$	c #F9DAEA",
"t$	c #FBE5F1",
"u$	c #FFFDFF",
"v$	c #FCFDFB",
"w$	c #FCDCED",
"x$	c #FAE3EF",
"y$	c #FAF7F9",
"z$	c #F8D7E8",
"A$	c #F8E0EB",
"B$	c #EFEFF0",
"C$	c #EAEAEA",
"D$	c #E7E7E7",
"E$	c #E3E4E4",
"F$	c #E3E4E3",
"G$	c #E3E3E3",
"H$	c #E3E4E2",
"I$	c #E5E5E5",
"J$	c #F8D6E7",
"K$	c #F2DBE8",
"L$	c #ECEDEE",
"M$	c #EFF0F0",
"N$	c #F4F5F4",
"O$	c #F8F8F8",
"P$	c #EEEEEE",
"Q$	c #DBDCDC",
"R$	c #D0D2D1",
"S$	c #C6CAC8",
"T$	c #CAC3C6",
"U$	c #F8D1E4",
"V$	c #DFCAD3",
"W$	c #B9BCBE",
"X$	c #B0AFB0",
"Y$	c #A8AAA9",
"Z$	c #A7A8A8",
"`$	c #B8BAB9",
" %	c #C2C4C3",
".%	c #C0C2C1",
"+%	c #C0C1C0",
"@%	c #C3C1C1",
"#%	c #F1D0E0",
"$%	c #E1CAD6",
"%%	c #BBBFBE",
"&%	c #B0B2B1",
"*%	c #AAABAB",
"=%	c #AAACAB",
"-%	c #BCBEBD",
";%	c #CECECE",
">%	c #DBDBDB",
",%	c #E9E9E9",
"'%	c #F7F7F7",
")%	c #FBFBFB",
"!%	c #CDCDCD",
"~%	c #C1C1C1",
"{%	c #BFC1C0",
"]%	c #B3B2B3",
"^%	c #7F727A",
"/%	c #453F42",
"(%	c #212324",
"_%	c #131414",
":%	c #080A09",
"<%	c #070908",
"[%	c #363737",
"}%	c #B8B7B7",
"|%	c #7B7176",
"1%	c #4C4448",
"2%	c #222422",
"3%	c #141514",
"4%	c #060807",
"5%	c #2E2F2F",
"6%	c #B5B6B6",
"7%	c #C0C0C0",
"8%	c #C5C5C5",
"9%	c #E4E4E4",
"0%	c #C2C2C2",
"a%	c #BCBCBC",
"b%	c #808080",
"c%	c #696969",
"d%	c #626262",
"e%	c #5D5E5D",
"f%	c #575958",
"g%	c #575857",
"h%	c #838584",
"i%	c #C1C3C2",
"j%	c #818382",
"k%	c #6A6C6B",
"l%	c #5B5D5C",
"m%	c #595959",
"n%	c #7E7E7E",
"o%	c #BDBDBD",
"p%	c #C3C3C3",
"q%	c #C7C7C7",
"r%	c #D6D6D6",
"s%	c #F2F2F2",
"t%	c #F1F1F1",
"u%	c #E1E1E1",
"v%	c #DDDDDD",
"w%	c #D5D5D5",
"x%	c #D0D0D0",
"y%	c #CBCDCC",
"z%	c #C8CAC9",
"A%	c #C4C6C5",
"B%	c #C7C9C8",
"C%	c #C5C7C6",
"D%	c #C6C8C7",
"E%	c #C9CBCA",
"F%	c #CCCECD",
"G%	c #CFD1D0",
"H%	c #D1D2D2",
"I%	c #D5D7D6",
"J%	c #DFDFDF",
"K%	c #EDEDED",
"L%	c #F6F6F6",
"M%	c #FCFDFD",
"                                                                                                                                ",
"                                                                                                                                ",
"                                                                                                                                ",
"                                                                                                                                ",
"                                                      . + @ # $ % &                                                             ",
"                                                      * = - ; > , '                                                             ",
"                                          ) ! )         ~     {   ]                   ^ ^ ) /                                   ",
"                                        ( _ : < $ [ /   }       | 1     ^ / & 2 % 3 4 5 / % 6 7                                 ",
"                                        [ 8 9 0   a b c d       e f !   [ g h i j k l m n n o p                                 ",
"                                        q r     s t u v w       x y     z A B C D E F G H I J K L M                             ",
"                                        N O       P m Q   R   S T U V               W         X Y Z                             ",
"                                        `  .        ..+.  @.#.$.      %.&.*.=.      -.          X ;.>.7 ^                       ",
"                                        ,.  '.      =.).-             !.~.{.].^.    /.  (._.  :.<.[.  }.|.                      ",
"                                        % 1.L     2.3.L     4.  5.X   6.7.8.9.0.    a.  b.c.  d.  e.  f./                       ",
"                                        & Q g.h.i.j.      k.l.m.n.;   o.p.q.r.      X s.            (.f.^                       ",
"                                        t.& u.v.w.        x.y.z.A.B.    C.D.          E.          F.  / [                       ",
"                                        2 G.  H.          I.J.K.L.M.                    N.        O.P.] )                       ",
"                                        f.Q.R.              S.T.5.                        U.V.W.X.Y.[ [ )                       ",
"                                    &   Z.`.                                                 +.+++@+% )                         ",
"                                      #+a $+                                              %+; &+*+[                             ",
"                                    & =+            -+                                ;+>+,+'+)+! !+                            ",
"                                    ~+{+]+                                        ^+/+  (+_+& #+                                ",
"                                    ! :+<+                                        [+  }+7 |+  &                                 ",
"                                    ^ 1+2+  X                                       3+4+^ %                                     ",
"                                    ^ 5+6+                                          7+z 8+(                                     ",
"                                    / j 9+              0+                    a+b+  c+  d+e+                                    ",
"                                    f.f+G       g+    2.    h+R               i+    z   #+|.                                    ",
"                                    !+j+k+                  l+m+            n+o+    R   p+!                                     ",
"                                    |.q+  g+                  r+s+t+u+v+w+x+y+      z+A+d+~+                                    ",
"                                    / [ B+C+                    D+E+F+G+H+I+        J+K+& !                                     ",
"                                        L+M+2.                                    N+O+|.                                        ",
"                                        7 P+Q+                                  L d R+2                                         ",
"                                        6 _ S+T+                              U+V+W+X+2                                         ",
"                                        [ Y+Z+`+ @w                       X E..@+@@@g t.                                        ",
"                                    ) & #@$@%@  &@*@=@-@H.          R D ;@>@,@    '@)@X+[                                       ",
"                                    !@~@{@]@^@      /@(@_@:@<@[@}@|@1@2@3@        4@5@6@7@/                                     ",
"                      ! % |.^ / q+8@9@0@a@b@                                        c@d@e@f@A+M ^ / #+6 &                       ",
"                      g@h@i@j@k@l@m@n@o@p@q@                                        r@s@t@u@v@w@x@y@z@A@B@                      ",
"                      M C@h@D@E@F@G@H@I@J@                                            K@L@g M@2.N@O@P@Q@&                       ",
"                      ( R@S@T@U@#+& V@W@X@                                            Y@Z@`@&  #.#+#@#Z /                       ",
"                      ##$#%#&#*#  & =#-#;#                                            >#,#d+  [ '#)#!#~#)                       ",
"                          & b |.t.[ {#]#                                              ^#r@/#    & b                             ",
"                          & f.(#_#( :#<#                                                [#}#      &                             ",
"                      |#& |.1#2#3#4#5#6#                                                7#8#!+!@                                ",
"                      6 9#0#a#b#c#d#e#f#                                                g#h#1 !+                                ",
"                      / i#j#k#j#l#m#  n#                                                o#p#q#V@                                ",
"                        r#s#t#u#v#w#x#                                                  y#  z#[                                 ",
"                      |#A#B#C#D#E#F#G#                                                    H#I#6                                 ",
"                                J#K#L#                                                    M#N#O#                                ",
"                                @+P#Q#                                                    R#S#!@                                ",
"                                V@T#U#V#W#X#Y#Z#`# $.$+$@$#$$$%$&$*$=$-$;$>$,$'$)$!$~${$]$^$/$6                                 ",
"                                ($_$:$<$[$}$|$1$2$3$4$5$6$7$8$9$0$a$b$c$d$e$f$g$g$h$i$j$k$l$m$$                                 ",
"                                / [ & ! }.}.5 !+n$o$/ 2 2 2 2 2 f.f.p$b i@q$/ % %   ) ^ & ( ! r$                                ",
"                                              ( s$t$u$!             v$1 w$x$/                                                   ",
"                                & &   &   & X+y$z$A$B$C$D$E$F$G$G$G$H$I$J$K$L$M$N$O$b &   & &                                   ",
"                                  & b P$Q$R$S$T$U$V$W$X$Y$Z$`$ %.%.%+%@%#%$%%%&%*%=%-%;%>%,%'%&                                 ",
"                                & )%!%~%+%.%{%]%^%/%(%_%:%<%[%`$.%.%.%}%|%1%2%3%4%<%5%6%~%7%8%9%                                ",
"                                & b D$;%0%~%7%a%b%c%d%e%f%g%h%{%i%i%.%-%j%k%e%l%g%m%n%o%p%q%r%s%                                ",
"                                #+& & & O$t%D$u%v%w%x%y%z%A%B%C%A%A%D%C%E%F%G%H%I%J%D$K%L%b & &                                 ",
"                                    &           &   & #+#+#+#+M%M%M%#+M%#+7 &                                                   ",
"                                                                                                                                ",
"                                                                                                                                ",
"                                                                                                                                ",
"                                                                                                                                "};
