/* XPM */
static char * texturew_xpm[] = {
"64 64 642 2",
"  	c #FFFFFF",
". 	c #FCFFFD",
"+ 	c #FDF3FA",
"@ 	c #FCE4F0",
"# 	c #FCE9F2",
"$ 	c #FDFCFE",
"% 	c #FFFEFE",
"& 	c #FEFEFE",
"* 	c #FEF1F6",
"= 	c #FAB4D8",
"- 	c #F4B5D7",
"; 	c #F3AFD3",
"> 	c #F9C6E2",
", 	c #FCF9FC",
"' 	c #FCFEFE",
") 	c #FFFEFF",
"! 	c #FEFFFE",
"~ 	c #FF0000",
"{ 	c #F7A8C8",
"] 	c #F4B5D6",
"^ 	c #FBFEFD",
"/ 	c #FEFFFF",
"( 	c #FEFEFF",
"_ 	c #FFFDFE",
": 	c #FAFDFE",
"< 	c #FBF6FA",
"[ 	c #FBF8FC",
"} 	c #FDFEFE",
"| 	c #FB9CB8",
"1 	c #FB8DA7",
"2 	c #FBFDFD",
"3 	c #FEFEFD",
"4 	c #FDFEFB",
"5 	c #FDFFFC",
"6 	c #FDFFFE",
"7 	c #FEFDFD",
"8 	c #FDFEFD",
"9 	c #FBDFF0",
"0 	c #F6B5D9",
"a 	c #F6B0D3",
"b 	c #FDF4F8",
"c 	c #FCFCFC",
"d 	c #FAE9F3",
"e 	c #F6B4D7",
"f 	c #F4B2D6",
"g 	c #FCFBFD",
"h 	c #FCFAFB",
"i 	c #FCF3F8",
"j 	c #FBEFF7",
"k 	c #FCE8F3",
"l 	c #FEE4F3",
"m 	c #FCE1F0",
"n 	c #FBD9EB",
"o 	c #F8D2E7",
"p 	c #FAE6F2",
"q 	c #FBFAF9",
"r 	c #FDF5FA",
"s 	c #F3B0D3",
"t 	c #F4B3D1",
"u 	c #FE4B56",
"v 	c #FDF9FA",
"w 	c #FBF8FA",
"x 	c #F4B4D5",
"y 	c #F6B4D5",
"z 	c #FBEBF6",
"A 	c #FD6878",
"B 	c #F3B3D5",
"C 	c #F6B4D6",
"D 	c #F6B6D8",
"E 	c #F7B5D8",
"F 	c #F7B8D8",
"G 	c #F5AFD5",
"H 	c #F7AED4",
"I 	c #F9B6D9",
"J 	c #F6B2D6",
"K 	c #F3AFD2",
"L 	c #F5B7D8",
"M 	c #FBE8F1",
"N 	c #FDFDFC",
"O 	c #FCEEF6",
"P 	c #F8B2D7",
"Q 	c #F5B5D8",
"R 	c #FAFEFE",
"S 	c #FD687B",
"T 	c #F8A8C5",
"U 	c #F3A6D3",
"V 	c #F2B4D7",
"W 	c #FA9CB7",
"X 	c #F5B3D8",
"Y 	c #FC7E92",
"Z 	c #F5ACD5",
"` 	c #FBE7F1",
" .	c #FEF6F9",
"..	c #F7B2D8",
"+.	c #F7B7D9",
"@.	c #FAF3FA",
"#.	c #F2A9D1",
"$.	c #F2B2D7",
"%.	c #F5B3D2",
"&.	c #F8B8D9",
"*.	c #F8B3D2",
"=.	c #F6B7DB",
"-.	c #F6AED5",
";.	c #F2ADD1",
">.	c #FC7E94",
",.	c #F6B3D7",
"'.	c #FDF6F8",
").	c #FCFEFC",
"!.	c #FC7D91",
"~.	c #F6AFD5",
"{.	c #F3B7D7",
"].	c #BBBDBF",
"^.	c #E8E3E7",
"/.	c #F6CCE1",
"(.	c #F2B7D6",
"_.	c #F5AFD2",
":.	c #F98FA5",
"<.	c #EEB9D5",
"[.	c #D692B6",
"}.	c #FA7E91",
"|.	c #F4B3D5",
"1.	c #FDFFFD",
"2.	c #FDFEFF",
"3.	c #FBF5FA",
"4.	c #FB7D91",
"5.	c #FB8DA5",
"6.	c #F4A8CF",
"7.	c #F4B4D6",
"8.	c #F3B2D4",
"9.	c #FE4B58",
"0.	c #F67D8E",
"a.	c #383738",
"b.	c #B7B8B9",
"c.	c #FBDCED",
"d.	c #F6B5D7",
"e.	c #F6B2D5",
"f.	c #DC9CBF",
"g.	c #D78BB2",
"h.	c #D990B5",
"i.	c #FC6978",
"j.	c #FA8FA7",
"k.	c #FEFDFE",
"l.	c #FCF0F5",
"m.	c #F9B3D1",
"n.	c #F6B2DA",
"o.	c #F6B8D8",
"p.	c #F5B5D7",
"q.	c #E0C6D7",
"r.	c #EDCFD1",
"s.	c #FBE8F2",
"t.	c #F4AFD2",
"u.	c #E5CBDA",
"v.	c #EFD4E5",
"w.	c #F4B0D5",
"x.	c #F4B6D4",
"y.	c #FD4B57",
"z.	c #FDFFFF",
"A.	c #FDF6FB",
"B.	c #F6B3D1",
"C.	c #F1B3D5",
"D.	c #F0B8D6",
"E.	c #796D76",
"F.	c #777675",
"G.	c #FDFAFC",
"H.	c #F3B7D5",
"I.	c #F7B4D9",
"J.	c #F6B7DA",
"K.	c #F4ABD1",
"L.	c #F7B5D4",
"M.	c #FDFBFD",
"N.	c #FA8DA4",
"O.	c #F3B3D1",
"P.	c #E5D2DE",
"Q.	c #E2E1E1",
"R.	c #FAE1EF",
"S.	c #F4B4D7",
"T.	c #F3AAD1",
"U.	c #FE4B59",
"V.	c #F3AED2",
"W.	c #FAECF2",
"X.	c #FAE0ED",
"Y.	c #F7B3D6",
"Z.	c #F3ADD0",
"`.	c #F1B8D6",
" +	c #F3ADD1",
".+	c #F6ACD3",
"++	c #F0AAD1",
"@+	c #F5A8D2",
"#+	c #F9D9EB",
"$+	c #FCF9F9",
"%+	c #F9B8DD",
"&+	c #F7B3D2",
"*+	c #F2ACD1",
"=+	c #F8D8ED",
"-+	c #FBFCFC",
";+	c #FDFDFD",
">+	c #FD959D",
",+	c #F7A8C5",
"'+	c #F1B5D8",
")+	c #FBE2F1",
"!+	c #FBFCFE",
"~+	c #FBFCFD",
"{+	c #FC8DA5",
"]+	c #F99CB6",
"^+	c #F5AED2",
"/+	c #F8C5DE",
"(+	c #FBF0F6",
"_+	c #FDFEFC",
":+	c #FDFDFE",
"<+	c #FEFFFD",
"[+	c #FCF8FA",
"}+	c #F4B2D5",
"|+	c #F5ABD4",
"1+	c #F5AED6",
"2+	c #F9DEE9",
"3+	c #FCFCFD",
"4+	c #FBEDF3",
"5+	c #F5AFD3",
"6+	c #F9A8C4",
"7+	c #FDFAFE",
"8+	c #FFFEFD",
"9+	c #FCE6F1",
"0+	c #F6B3D6",
"a+	c #F5B3D5",
"b+	c #FEF5FB",
"c+	c #FCE5F0",
"d+	c #F7B6D8",
"e+	c #F7B5D7",
"f+	c #FDABB4",
"g+	c #FBFEFE",
"h+	c #F7B0D5",
"i+	c #FE6879",
"j+	c #F795BF",
"k+	c #F7A8C3",
"l+	c #FC7D92",
"m+	c #FCFEFD",
"n+	c #FDFDFF",
"o+	c #FDEFF7",
"p+	c #F6B5D5",
"q+	c #FD6879",
"r+	c #F471A9",
"s+	c #FDF6FA",
"t+	c #F6B1D4",
"u+	c #F9A3CA",
"v+	c #F473A9",
"w+	c #F595C0",
"x+	c #F68FBD",
"y+	c #FBFDFC",
"z+	c #FDFCFC",
"A+	c #F385B4",
"B+	c #F565A1",
"C+	c #F59DC6",
"D+	c #F7B7D6",
"E+	c #FAA8C4",
"F+	c #F3AACD",
"G+	c #F47AAC",
"H+	c #F488B6",
"I+	c #F5B7D7",
"J+	c #FD959F",
"K+	c #FE959F",
"L+	c #F3AED4",
"M+	c #F8AED2",
"N+	c #F685B3",
"O+	c #F474A8",
"P+	c #F379AB",
"Q+	c #F690BB",
"R+	c #F6B2D2",
"S+	c #F4B0D4",
"T+	c #FEF1F9",
"U+	c #FCFAFC",
"V+	c #F8B3D9",
"W+	c #F7B6D7",
"X+	c #FAC9E4",
"Y+	c #FAE6F0",
"Z+	c #F5AED4",
"`+	c #FB7D90",
" @	c #F8F4F8",
".@	c #F7D4E3",
"+@	c #F5A8CF",
"@@	c #F7B3D1",
"#@	c #F5A4C7",
"$@	c #F8E3EA",
"%@	c #FCFDFC",
"&@	c #FAF8FA",
"*@	c #F6948C",
"=@	c #F4747D",
"-@	c #F3A5CB",
";@	c #F1A0BB",
">@	c #F84946",
",@	c #F7A399",
"'@	c #FBFDFE",
")@	c #F7CFC9",
"!@	c #F44132",
"~@	c #F76B6C",
"{@	c #F494AC",
"]@	c #F5A7D0",
"^@	c #F3B2D6",
"/@	c #FA8DA5",
"(@	c #F5ABD2",
"_@	c #F99FBF",
":@	c #F48798",
"<@	c #F44032",
"[@	c #F9D4D3",
"}@	c #FCFDFF",
"|@	c #FDF9FE",
"1@	c #FCF2F9",
"2@	c #F5999A",
"3@	c #F4564C",
"4@	c #FA5758",
"5@	c #FA8A99",
"6@	c #F497B3",
"7@	c #F2A0C4",
"8@	c #F3A4C6",
"9@	c #F3A7CE",
"0@	c #F5A7CC",
"a@	c #F4A1C3",
"b@	c #F29DB9",
"c@	c #F48C9F",
"d@	c #F87C82",
"e@	c #F2534B",
"f@	c #F87974",
"g@	c #FEF3F7",
"h@	c #FEFBFE",
"i@	c #FDF1F8",
"j@	c #FCDFF0",
"k@	c #FBD3EB",
"l@	c #FACBDD",
"m@	c #F496A2",
"n@	c #F43C2F",
"o@	c #F7B2BD",
"p@	c #FBD6ED",
"q@	c #FCE2EE",
"r@	c #FDF4F9",
"s@	c #FEF9FD",
"t@	c #FADCEC",
"u@	c #FBDAED",
"v@	c #FCEDF6",
"w@	c #FEEAF5",
"x@	c #FCD8EC",
"y@	c #F8D1E6",
"z@	c #F5DAE9",
"A@	c #F9E7F2",
"B@	c #FB8480",
"C@	c #F15345",
"D@	c #F75044",
"E@	c #F7817B",
"F@	c #FAE7F1",
"G@	c #FAD9ED",
"H@	c #F9D2E8",
"I@	c #FBD9EC",
"J@	c #FDEDF6",
"K@	c #FCEAF5",
"L@	c #F9D8EA",
"M@	c #FADCED",
"N@	c #FFFCFF",
"O@	c #FCF2F6",
"P@	c #FAD0E7",
"Q@	c #FAD2E6",
"R@	c #F8E2ED",
"S@	c #FCF5F7",
"T@	c #FCFBFA",
"U@	c #FBE7E4",
"V@	c #F54436",
"W@	c #F7453A",
"X@	c #FAEBE3",
"Y@	c #FCF1F6",
"Z@	c #FBDFED",
"`@	c #FBD2E7",
" #	c #FACFE6",
".#	c #F8DEE9",
"+#	c #FCF3F7",
"@#	c #F7E3EF",
"##	c #FCD3EA",
"$#	c #F9CFE4",
"%#	c #FCECF5",
"&#	c #FAFDFD",
"*#	c #F8BDB7",
"=#	c #F74238",
"-#	c #F33F31",
";#	c #F7C1BB",
">#	c #FAFDFC",
",#	c #FDFBFC",
"'#	c #FCE6F2",
")#	c #FACEE5",
"!#	c #FBD1E7",
"~#	c #FDFCFD",
"{#	c #FDDFEE",
"]#	c #FEEAF6",
"^#	c #F9DCEA",
"/#	c #FCFBFC",
"(#	c #FAFCFA",
"_#	c #F8867D",
":#	c #F6564C",
"<#	c #F44F44",
"[#	c #F78784",
"}#	c #FDF8FC",
"|#	c #FADAE9",
"1#	c #FCECF7",
"2#	c #F8DEEB",
"3#	c #FBF2F1",
"4#	c #F34E45",
"5#	c #FE211C",
"6#	c #FCF7F4",
"7#	c #FDF8FA",
"8#	c #FDF6F9",
"9#	c #FCD9D7",
"0#	c #F53D31",
"a#	c #F43D30",
"b#	c #FDE1DC",
"c#	c #FEFEFC",
"d#	c #FCF2F8",
"e#	c #F8D5E6",
"f#	c #F9D3E5",
"g#	c #FDEEF6",
"h#	c #F7C0BA",
"i#	c #F84639",
"j#	c #F43F31",
"k#	c #F8C4C2",
"l#	c #FCF6FB",
"m#	c #FCF4FB",
"n#	c #FCE9F3",
"o#	c #FBD7EA",
"p#	c #FBDCEE",
"q#	c #FBDFEC",
"r#	c #F89C94",
"s#	c #F45144",
"t#	c #F74C40",
"u#	c #F8A6A2",
"v#	c #F9E8F3",
"w#	c #FAD5E9",
"x#	c #FDDFEF",
"y#	c #F8D7EB",
"z#	c #FBDAEB",
"A#	c #F94941",
"B#	c #F6564B",
"C#	c #F7847A",
"D#	c #FBFCFA",
"E#	c #FFF9FE",
"F#	c #FBDDED",
"G#	c #F9D4E6",
"H#	c #F8D3E6",
"I#	c #FADDEC",
"J#	c #FBD9E5",
"K#	c #F14C49",
"L#	c #FD3029",
"M#	c #FEF6F4",
"N#	c #FCFFFE",
"O#	c #FEFCFE",
"P#	c #FEFAFE",
"Q#	c #FDFAFD",
"R#	c #FBFCFB",
"S#	c #FBE7E2",
"T#	c #F53F34",
"U#	c #F43C33",
"V#	c #FCEEEC",
"W#	c #FDFDFB",
"X#	c #FAD9D3",
"Y#	c #F53A2E",
"Z#	c #F13428",
"`#	c #FCE3DD",
" $	c #FFFDFC",
".$	c #F8C0BF",
"+$	c #F74333",
"@$	c #F43F2F",
"#$	c #FBCDC5",
"$$	c #F5B2AC",
"%$	c #F7372B",
"&$	c #F74537",
"*$	c #F54839",
"=$	c #F6483A",
"-$	c #F64A3B",
";$	c #F44A3E",
">$	c #F64C43",
",$	c #F74F47",
"'$	c #F85146",
")$	c #F55246",
"!$	c #F75549",
"~$	c #F6554A",
"{$	c #F8574B",
"]$	c #F65449",
"^$	c #FB423A",
"/$	c #F74F46",
"($	c #F7554A",
"_$	c #F95146",
":$	c #FA4941",
"<$	c #F94F48",
"[$	c #F7554C",
"}$	c #F6554C",
"|$	c #F5574A",
"1$	c #F85148",
"2$	c #F45145",
"3$	c #F44B3C",
"4$	c #F53F2D",
"5$	c #F6C1B5",
"6$	c #FCFDFE",
"7$	c #F8F2EC",
"8$	c #F9D4D2",
"9$	c #F8D0D0",
"0$	c #FAD0D0",
"a$	c #F9D1D0",
"b$	c #FBD1D1",
"c$	c #FDCED0",
"d$	c #F9B7BE",
"e$	c #FAB8BC",
"f$	c #FACAC5",
"g$	c #F9C1BD",
"h$	c #FABFBC",
"i$	c #F9C0BD",
"j$	c #F8BBB8",
"k$	c #ECADAA",
"l$	c #E6ACA7",
"m$	c #EFB4AE",
"n$	c #F7BEBD",
"o$	c #FBBEBE",
"p$	c #F7A6B2",
"q$	c #F7ACB3",
"r$	c #F7BDBB",
"s$	c #F9BFBE",
"t$	c #FBC1C0",
"u$	c #FDC9C6",
"v$	c #FCCCC8",
"w$	c #FBD2CE",
"x$	c #FAD7D4",
"y$	c #F8F3F1",
"z$	c #F8D9EA",
"A$	c #FAE4F0",
"B$	c #FBFDFB",
"C$	c #FBE3F1",
"D$	c #FFFFFD",
"E$	c #F9DAEA",
"F$	c #FBE5F1",
"G$	c #FFFDFF",
"H$	c #FCFDFB",
"I$	c #FCDCED",
"J$	c #FAE3EF",
"K$	c #FAF7F9",
"L$	c #F8D7E8",
"M$	c #F8E0EB",
"N$	c #EFEFF0",
"O$	c #EAEAEA",
"P$	c #E7E7E7",
"Q$	c #E3E4E4",
"R$	c #E3E4E3",
"S$	c #E3E3E3",
"T$	c #E3E4E2",
"U$	c #E5E5E5",
"V$	c #F8D6E7",
"W$	c #F2DBE8",
"X$	c #ECEDEE",
"Y$	c #EFF0F0",
"Z$	c #F4F5F4",
"`$	c #F8F8F8",
" %	c #EEEEEE",
".%	c #DBDCDC",
"+%	c #D0D2D1",
"@%	c #C6CAC8",
"#%	c #CAC3C6",
"$%	c #F8D1E4",
"%%	c #DFCAD3",
"&%	c #B9BCBE",
"*%	c #B0AFB0",
"=%	c #A8AAA9",
"-%	c #A7A8A8",
";%	c #B8BAB9",
">%	c #C2C4C3",
",%	c #C0C2C1",
"'%	c #C0C1C0",
")%	c #C3C1C1",
"!%	c #F1D0E0",
"~%	c #E1CAD6",
"{%	c #BBBFBE",
"]%	c #B0B2B1",
"^%	c #AAABAB",
"/%	c #AAACAB",
"(%	c #BCBEBD",
"_%	c #CECECE",
":%	c #DBDBDB",
"<%	c #E9E9E9",
"[%	c #F7F7F7",
"}%	c #FBFBFB",
"|%	c #CDCDCD",
"1%	c #C1C1C1",
"2%	c #BFC1C0",
"3%	c #B3B2B3",
"4%	c #7F727A",
"5%	c #453F42",
"6%	c #212324",
"7%	c #131414",
"8%	c #080A09",
"9%	c #070908",
"0%	c #363737",
"a%	c #B8B7B7",
"b%	c #7B7176",
"c%	c #4C4448",
"d%	c #222422",
"e%	c #141514",
"f%	c #060807",
"g%	c #2E2F2F",
"h%	c #B5B6B6",
"i%	c #C0C0C0",
"j%	c #C5C5C5",
"k%	c #E4E4E4",
"l%	c #C2C2C2",
"m%	c #BCBCBC",
"n%	c #808080",
"o%	c #696969",
"p%	c #626262",
"q%	c #5D5E5D",
"r%	c #575958",
"s%	c #575857",
"t%	c #838584",
"u%	c #C1C3C2",
"v%	c #818382",
"w%	c #6A6C6B",
"x%	c #5B5D5C",
"y%	c #595959",
"z%	c #7E7E7E",
"A%	c #BDBDBD",
"B%	c #C3C3C3",
"C%	c #C7C7C7",
"D%	c #D6D6D6",
"E%	c #F2F2F2",
"F%	c #F1F1F1",
"G%	c #E1E1E1",
"H%	c #DDDDDD",
"I%	c #D5D5D5",
"J%	c #D0D0D0",
"K%	c #CBCDCC",
"L%	c #C8CAC9",
"M%	c #C4C6C5",
"N%	c #C7C9C8",
"O%	c #C5C7C6",
"P%	c #C6C8C7",
"Q%	c #C9CBCA",
"R%	c #CCCECD",
"S%	c #CFD1D0",
"T%	c #D1D2D2",
"U%	c #D5D7D6",
"V%	c #DFDFDF",
"W%	c #EDEDED",
"X%	c #F6F6F6",
"Y%	c #FCFDFD",
"                                                                                                                                ",
"                                                                                                                                ",
"                                                                                                                                ",
"                                                                                                                                ",
"                                                      . + @ # $ % &                                                             ",
"                                                      * = - ; > , '                                                             ",
"                                          ) ! )       ~ { ~ ~ ] ~ ^                   / / ) (                                   ",
"                                        _ : < [ $ } ( ~ | ~ ~ ~ 1 2     / ( & 3 % 4 5 6 ( % 7 8                                 ",
"                                        } 9 0 a ~ b c d e ~ ~ ~ f g !   } h i j k l m n o o p q                                 ",
"                                        r s ~ ~ t u v w x ~ ~ ~ y z ~ ~ A B C D E F G H I J K L M N                             ",
"                                        O P ~ ~ ~ Q n R ~ S ~ T U V W ~ ~ ~ ~ ~ ~ ~ X ~ ~ ~ ~ Y Z `                             ",
"                                         ...~ ~ ~ ~ +.@.~ #.$.%.~ ~ ~ &.*.=.-.~ ~ ~ ;.~ ~ ~ ~ ~ >.,.'.8 /                       ",
"                                        ).~ !.~ ~ ~ -.~.- ~ ~ ~ ~ ~ ~ {.].^./.(.~ ~ _.~ :.<.~ [.}.|.~ 1.2.                      ",
"                                        % 3.4.~ ~ 5.6.4.~ ~ 7.~ 8.9.~ 0.a.b.c.d.~ ~ e.~ f.g.~ h.i.j.~ k.(                       ",
"                                        & R l.m.n.o.~ ~ ~ p.q.r.s.; ~ t.u.v.w.~ ~ ~ 9.x.~ y.~ ~ ~ ~ :.k./                       ",
"                                        z.& A.B.C.~ ~ ~ ~ D.E.F.G.H.~ ~ I.J.~ ~ ~ ~ ~ K.~ ~ ~ ~ ~ L.~ ( }                       ",
"                                        3 M.~ N.~ ~ ~ ~ ~ O.P.Q.R.S.~ ~ ~ ~ ~ ~ ~ ~ ~ ~ T.~ ~ ~ U.V.W.^ )                       ",
"                                        k.X.Y.~ ~ ~ ~ ~ ~ ~ Z.`.8.~ ~ ~ ~ ~ ~ ~ ~ ~ ~ ~ ~  +.+++@+#+} } )                       ",
"                                    &   $+%+~ ~ ~ ~ ~ ~ ~ ~ ~ ~ ~ ~ ~ ~ ~ ~ ~ ~ ~ ~ ~ ~ ~ ~ &+*+=+-+% )                         ",
"                                      ;+>+,+~ ~ ~ ~ ~ ~ ~ ~ ~ ~ ~ ~ ~ ~ ~ ~ ~ ~ ~ ~ ~ ~ ~ '+; )+!+}                             ",
"                                    & ~+~ ~ ~ ~ ~ ~ {+~ ~ ~ ~ ~ ~ ~ ~ ~ ~ ~ ~ ~ ~ ~ ~ ]+^+/+(+_+! :+                            ",
"                                    <+[+}+~ ~ ~ ~ ~ ~ ~ ~ ~ ~ ~ ~ ~ ~ ~ ~ ~ ~ ~ ~ |+1+~ 2+3+& ;+                                ",
"                                    ! 4+5+~ ~ ~ ~ ~ ~ ~ ~ ~ ~ ~ ~ ~ ~ ~ ~ ~ ~ ~ ~ 6+~ 7+8 8+  &                                 ",
"                                    / 9+0+~ 9.~ ~ ~ ~ ~ ~ ~ ~ ~ ~ ~ ~ ~ ~ ~ ~ ~ ~ ~ a+b+/ %                                     ",
"                                    / c+d+~ ~ ~ ~ ~ ~ ~ ~ ~ ~ ~ ~ ~ ~ ~ ~ ~ ~ ~ ~ ~ e+f+g+_                                     ",
"                                    ( k h+~ ~ ~ ~ ~ ~ ~ i+~ ~ ~ ~ ~ ~ ~ ~ ~ ~ j+k+~ l+~ m+n+                                    ",
"                                    k.o+H ~ ~ ~ {+~ ~ 5.~ ~ p+q+~ ~ ~ ~ ~ ~ ~ r+~ ~ q+~ ;+2.                                    ",
"                                    :+s+t+~ ~ ~ ~ ~ ~ ~ ~ ~ u+v+~ ~ ~ ~ ~ ~ w+x+~ ~ q+~ y+!                                     ",
"                                    2.z+~ {+~ ~ ~ ~ ~ ~ ~ ~ ~ A+B+C+D+E+F+G+H+~ ~ ~ I+J+m+<+                                    ",
"                                    ( } K+L+~ ~ ~ ~ ~ ~ ~ ~ ~ ~ M+N+O+P+Q+R+~ ~ ~ ~ S+T+& !                                     ",
"                                        U+V+5.~ ~ ~ ~ ~ ~ ~ ~ ~ ~ ~ ~ ~ ~ ~ ~ ~ ~ W+X+2.                                        ",
"                                        8 Y+Z+~ ~ ~ ~ ~ ~ ~ ~ ~ ~ ~ ~ ~ ~ ~ ~ ~ `+e  @3                                         ",
"                                        7 : .@+@~ ~ ~ ~ ~ ~ ~ ~ ~ ~ ~ ~ ~ ~ ~ @@#@$@%@3                                         ",
"                                        } &@*@=@-@x ~ ~ ~ ~ ~ ~ ~ ~ ~ ~ ~ 9.K.;@>@,@h z.                                        ",
"                                    ) & '@)@!@~ ~@{@]@^@/@~ ~ ~ ~ ~ q+E (@_@:@~ ~ <@[@%@}                                       ",
"                                    }@|@1@2@3@~ ~ ~ 4@5@6@7@8@9@0@a@b@c@d@~ ~ ~ ~ e@f@g@h@(                                     ",
"                      ! % 2./ ( z+i@j@k@l@m@~ ~ ~ ~ ~ ~ ~ ~ ~ ~ ~ ~ ~ ~ ~ ~ ~ ~ ~ ~ n@o@p@q@r@N / ( ;+7 &                       ",
"                      s@t@u@v@w@x@y@z@A@B@C@~ ~ ~ ~ ~ ~ ~ ~ ~ ~ ~ ~ ~ ~ ~ ~ ~ ~ ~ ~ D@E@F@G@H@I@J@K@L@M@N@                      ",
"                      N O@t@P@Q@R@S@T@U@V@~ ~ ~ ~ ~ ~ ~ ~ ~ ~ ~ ~ ~ ~ ~ ~ ~ ~ ~ ~ ~ ~ W@X@h Y@Z@`@ #.#+#&                       ",
"                      _ @###$#%#;+& &#*#=#~ ~ ~ ~ ~ ~ ~ ~ ~ ~ ~ ~ ~ ~ ~ ~ ~ ~ ~ ~ ~ ~ -#;#>#& ,#'#)#!#` (                       ",
"                      ~#{#]#^#/#  & (#_#:#~ ~ ~ ~ ~ ~ ~ ~ ~ ~ ~ ~ ~ ~ ~ ~ ~ ~ ~ ~ ~ ~ <#[#m+  } }#|#1#2#)                       ",
"                          & c 2.z.} 3#4#~ ~ ~ ~ ~ ~ ~ ~ ~ ~ ~ ~ ~ ~ ~ ~ ~ ~ ~ ~ ~ ~ ~ 5#D@6#    & c                             ",
"                          & k.7#8#_ 9#0#~ ~ ~ ~ ~ ~ ~ ~ ~ ~ ~ ~ ~ ~ ~ ~ ~ ~ ~ ~ ~ ~ ~ ~ a#b#      &                             ",
"                      c#& 2.d#e#f#g#h#i#~ ~ ~ ~ ~ ~ ~ ~ ~ ~ ~ ~ ~ ~ ~ ~ ~ ~ ~ ~ ~ ~ ~ ~ j#k#:+}@                                ",
"                      7 l#m#n#o#p#q#r#s#~ ~ ~ ~ ~ ~ ~ ~ ~ ~ ~ ~ ~ ~ ~ ~ ~ ~ ~ ~ ~ ~ ~ ~ t#u#2 :+                                ",
"                      ( v#w#x#w#y#z#~ A#~ ~ ~ ~ ~ ~ ~ ~ ~ ~ ~ ~ ~ ~ ~ ~ ~ ~ ~ ~ ~ ~ ~ ~ B#C#D#&#                                ",
"                        E#F#G#H#I#J#K#~ ~ ~ ~ ~ ~ ~ ~ ~ ~ ~ ~ ~ ~ ~ ~ ~ ~ ~ ~ ~ ~ ~ ~ ~ L#~ M#}                                 ",
"                      c#N#O#P#Q#R#S#T#~ ~ ~ ~ ~ ~ ~ ~ ~ ~ ~ ~ ~ ~ ~ ~ ~ ~ ~ ~ ~ ~ ~ ~ ~ ~ U#V#7                                 ",
"                                W#X#Y#~ ~ ~ ~ ~ ~ ~ ~ ~ ~ ~ ~ ~ ~ ~ ~ ~ ~ ~ ~ ~ ~ ~ ~ ~ ~ Z#`# $                                ",
"                                -+.$+$~ ~ ~ ~ ~ ~ ~ ~ ~ ~ ~ ~ ~ ~ ~ ~ ~ ~ ~ ~ ~ ~ ~ ~ ~ ~ @$#$}@                                ",
"                                &#$$%$&$*$=$-$;$>$,$'$)$!$~${$]$^$/$($'$_$:$<$[$}$|$1$2$3$4$5$7                                 ",
"                                6$7$8$9$0$a$b$c$d$e$f$g$h$i$j$k$l$m$n$o$p$q$r$s$s$t$u$v$w$x$y$$                                 ",
"                                ( } & ! 1.1.6 :+z$A$( 3 3 3 3 3 k.k.B$c u@C$( % %   ) / & _ ! D$                                ",
"                                              _ E$F$G$!             H$2 I$J$(                                                   ",
"                                & &   &   & %@K$L$M$N$O$P$Q$R$S$S$S$T$U$V$W$X$Y$Z$`$c &   & &                                   ",
"                                  & c  %.%+%@%#%$%%%&%*%=%-%;%>%,%,%'%)%!%~%{%]%^%/%(%_%:%<%[%&                                 ",
"                                & }%|%1%'%,%2%3%4%5%6%7%8%9%0%;%,%,%,%a%b%c%d%e%f%9%g%h%1%i%j%k%                                ",
"                                & c P$_%l%1%i%m%n%o%p%q%r%s%t%2%u%u%,%(%v%w%q%x%s%y%z%A%B%C%D%E%                                ",
"                                ;+& & & `$F%P$G%H%I%J%K%L%M%N%O%M%M%P%O%Q%R%S%T%U%V%P$W%X%c & &                                 ",
"                                    &           &   & ;+;+;+;+Y%Y%Y%;+Y%;+8 &                                                   ",
"                                                                                                                                ",
"                                                                                                                                ",
"                                                                                                                                ",
"                                                                                                                                "};
