/* XPM */
static char * texturee_xpm[] = {
"64 64 619 2",
"  	c #FFFFFF",
". 	c #FCFFFD",
"+ 	c #FDF3FA",
"@ 	c #FCE4F0",
"# 	c #FCE9F2",
"$ 	c #FDFCFE",
"% 	c #FFFEFE",
"& 	c #FEFEFE",
"* 	c #FEF1F6",
"= 	c #FAB4D8",
"- 	c #F4B5D7",
"; 	c #F3AFD3",
"> 	c #F9C6E2",
", 	c #FCF9FC",
"' 	c #FCFEFE",
") 	c #FFFEFF",
"! 	c #FEFFFE",
"~ 	c #FDFF00",
"{ 	c #FAE792",
"] 	c #F4B5D6",
"^ 	c #FBFEFD",
"/ 	c #FEFFFF",
"( 	c #FEFEFF",
"_ 	c #FFFDFE",
": 	c #FAFDFE",
"< 	c #FBF6FA",
"[ 	c #FBF8FC",
"} 	c #FDFEFE",
"| 	c #FBFDFD",
"1 	c #FEFEFD",
"2 	c #FDFEFB",
"3 	c #FDFFFC",
"4 	c #FDFFFE",
"5 	c #FEFDFD",
"6 	c #FDFEFD",
"7 	c #FBDFF0",
"8 	c #F6B5D9",
"9 	c #F6B0D3",
"0 	c #FDF4F8",
"a 	c #FCFCFC",
"b 	c #FAE9F3",
"c 	c #F6B4D7",
"d 	c #F4B2D6",
"e 	c #FCFBFD",
"f 	c #FCFAFB",
"g 	c #FCF3F8",
"h 	c #FBEFF7",
"i 	c #FCE8F3",
"j 	c #FEE4F3",
"k 	c #FCE1F0",
"l 	c #FBD9EB",
"m 	c #F8D2E7",
"n 	c #FAE6F2",
"o 	c #FBFAF9",
"p 	c #FDF5FA",
"q 	c #F3B0D3",
"r 	c #F5CAC3",
"s 	c #FDF9FA",
"t 	c #FBF8FA",
"u 	c #F4B4D5",
"v 	c #F6B4D5",
"w 	c #FBEBF6",
"x 	c #F3B3D5",
"y 	c #F6B4D6",
"z 	c #F6B6D8",
"A 	c #F7B5D8",
"B 	c #F7B8D8",
"C 	c #F5AFD5",
"D 	c #F7AED4",
"E 	c #F9B6D9",
"F 	c #F6B2D6",
"G 	c #F3AFD2",
"H 	c #F5B7D8",
"I 	c #FBE8F1",
"J 	c #FDFDFC",
"K 	c #FCEEF6",
"L 	c #F8B2D7",
"M 	c #F5B5D8",
"N 	c #FAFEFE",
"O 	c #FAE790",
"P 	c #F3A6D3",
"Q 	c #F2B4D7",
"R 	c #F5B3D8",
"S 	c #FBE892",
"T 	c #F5ACD5",
"U 	c #FBE7F1",
"V 	c #FEF6F9",
"W 	c #F7B2D8",
"X 	c #F7B7D9",
"Y 	c #FAF3FA",
"Z 	c #F2A9D1",
"` 	c #F2B2D7",
" .	c #F6CAC4",
"..	c #F8B8D9",
"+.	c #F8CAC4",
"@.	c #F6B7DB",
"#.	c #F6AED5",
"$.	c #F2ADD1",
"%.	c #FBE894",
"&.	c #F6B3D7",
"*.	c #FDF6F8",
"=.	c #FCFEFC",
"-.	c #F6AFD5",
";.	c #F3B7D7",
">.	c #BBBDBF",
",.	c #E8E3E7",
"'.	c #F6CCE1",
").	c #F2B7D6",
"!.	c #F5AFD2",
"~.	c #F8DFA5",
"{.	c #EEB9D5",
"].	c #D692B6",
"^.	c #F9E891",
"/.	c #F4B3D5",
"(.	c #FDFFFD",
"_.	c #FDFEFF",
":.	c #FBF5FA",
"<.	c #F4A8CF",
"[.	c #F4B4D6",
"}.	c #F3B2D4",
"|.	c #383738",
"1.	c #B7B8B9",
"2.	c #FBDCED",
"3.	c #F6B5D7",
"4.	c #F6B2D5",
"5.	c #DC9CBF",
"6.	c #D78BB2",
"7.	c #D990B5",
"8.	c #FAF078",
"9.	c #F9DFA7",
"0.	c #FEFDFE",
"a.	c #FCF0F5",
"b.	c #FACAC3",
"c.	c #F6B2DA",
"d.	c #F6B8D8",
"e.	c #F5B5D7",
"f.	c #E0C6D7",
"g.	c #F5F599",
"h.	c #FBE8F2",
"i.	c #F4AFD2",
"j.	c #E5CBDA",
"k.	c #EFD4E5",
"l.	c #F4B0D5",
"m.	c #F4B6D4",
"n.	c #FCF857",
"o.	c #FDFFFF",
"p.	c #FDF6FB",
"q.	c #F7CAC4",
"r.	c #F1B3D5",
"s.	c #F0B8D6",
"t.	c #796D76",
"u.	c #777675",
"v.	c #FDFAFC",
"w.	c #F3B7D5",
"x.	c #F7B4D9",
"y.	c #F6B7DA",
"z.	c #F4ABD1",
"A.	c #F6C1D4",
"B.	c #FDFBFD",
"C.	c #F3B3D1",
"D.	c #E5D2DE",
"E.	c #E2E1E1",
"F.	c #FAE1EF",
"G.	c #F4B4D7",
"H.	c #F3AAD1",
"I.	c #FDF859",
"J.	c #F3AED2",
"K.	c #FAECF2",
"L.	c #FAE0ED",
"M.	c #F7B3D6",
"N.	c #F3ADD0",
"O.	c #F1B8D6",
"P.	c #F3ADD1",
"Q.	c #F6ACD3",
"R.	c #F0AAD1",
"S.	c #F5A8D2",
"T.	c #F9D9EB",
"U.	c #FCF9F9",
"V.	c #F9B8DD",
"W.	c #F2ACD1",
"X.	c #F8D8ED",
"Y.	c #FBFCFC",
"Z.	c #FDFDFD",
"`.	c #F1B5D8",
" +	c #FBE2F1",
".+	c #FBFCFE",
"++	c #FBFCFD",
"@+	c #F5AED2",
"#+	c #F8C5DE",
"$+	c #FBF0F6",
"%+	c #FDFEFC",
"&+	c #FDFDFE",
"*+	c #FEFFFD",
"=+	c #FCF8FA",
"-+	c #F4B2D5",
";+	c #F5ABD4",
">+	c #F5AED6",
",+	c #FAEBD9",
"'+	c #FCFCFD",
")+	c #FBEDF3",
"!+	c #F5AFD3",
"~+	c #FBE790",
"{+	c #FDFAFE",
"]+	c #FFFEFD",
"^+	c #FCE6F1",
"/+	c #F6B3D6",
"(+	c #F5B3D5",
"_+	c #FEF5FB",
":+	c #FCE5F0",
"<+	c #F7B6D8",
"[+	c #F7B5D7",
"}+	c #FBFEFE",
"|+	c #F7B0D5",
"1+	c #FBCAC4",
"2+	c #F795BF",
"3+	c #FAE78E",
"4+	c #FCFEFD",
"5+	c #FDFDFF",
"6+	c #FDEFF7",
"7+	c #F6B5D5",
"8+	c #F471A9",
"9+	c #FDF6FA",
"0+	c #F6B1D4",
"a+	c #F9A3CA",
"b+	c #F473A9",
"c+	c #F595C0",
"d+	c #F68FBD",
"e+	c #FBFDFC",
"f+	c #FDFCFC",
"g+	c #F385B4",
"h+	c #F565A1",
"i+	c #F59DC6",
"j+	c #F7B7D6",
"k+	c #FCE78F",
"l+	c #F3AACD",
"m+	c #F47AAC",
"n+	c #F488B6",
"o+	c #F5B7D7",
"p+	c #F3AED4",
"q+	c #F8AED2",
"r+	c #F685B3",
"s+	c #F474A8",
"t+	c #F379AB",
"u+	c #F690BB",
"v+	c #F6B2D2",
"w+	c #F4B0D4",
"x+	c #FEF1F9",
"y+	c #FCFAFC",
"z+	c #F8B3D9",
"A+	c #F7B6D7",
"B+	c #FAC9E4",
"C+	c #FAE6F0",
"D+	c #F5AED4",
"E+	c #F8F4F8",
"F+	c #F7D4E3",
"G+	c #F5A8CF",
"H+	c #F7CAC3",
"I+	c #F5A4C7",
"J+	c #F8E3EA",
"K+	c #FCFDFC",
"L+	c #FAF8FA",
"M+	c #F6948C",
"N+	c #F4747D",
"O+	c #F3A5CB",
"P+	c #F1A0BB",
"Q+	c #F8AA46",
"R+	c #F7A399",
"S+	c #FBFDFE",
"T+	c #F7CFC9",
"U+	c #F44132",
"V+	c #F79F6C",
"W+	c #F494AC",
"X+	c #F5A7D0",
"Y+	c #F3B2D6",
"Z+	c #F5ABD2",
"`+	c #F99FBF",
" @	c #F48798",
".@	c #F44032",
"+@	c #F9D4D3",
"@@	c #FCFDFF",
"#@	c #FDF9FE",
"$@	c #FCF2F9",
"%@	c #F5999A",
"&@	c #F4564C",
"*@	c #F9C658",
"=@	c #FA8A99",
"-@	c #F497B3",
";@	c #F2A0C4",
">@	c #F3A4C6",
",@	c #F3A7CE",
"'@	c #F5A7CC",
")@	c #F4A1C3",
"!@	c #F29DB9",
"~@	c #F48C9F",
"{@	c #F87C82",
"]@	c #F2534B",
"^@	c #F87974",
"/@	c #FEF3F7",
"(@	c #FEFBFE",
"_@	c #FDF1F8",
":@	c #FCDFF0",
"<@	c #FBD3EB",
"[@	c #FACBDD",
"}@	c #F496A2",
"|@	c #F43C2F",
"1@	c #F7B2BD",
"2@	c #FBD6ED",
"3@	c #FCE2EE",
"4@	c #FDF4F9",
"5@	c #FEF9FD",
"6@	c #FADCEC",
"7@	c #FBDAED",
"8@	c #FCEDF6",
"9@	c #FEEAF5",
"0@	c #FCD8EC",
"a@	c #F8D1E6",
"b@	c #F5DAE9",
"c@	c #F9E7F2",
"d@	c #FB8480",
"e@	c #F15345",
"f@	c #F75044",
"g@	c #F7817B",
"h@	c #FAE7F1",
"i@	c #FAD9ED",
"j@	c #F9D2E8",
"k@	c #FBD9EC",
"l@	c #FDEDF6",
"m@	c #FCEAF5",
"n@	c #F9D8EA",
"o@	c #FADCED",
"p@	c #FFFCFF",
"q@	c #FCF2F6",
"r@	c #FAD0E7",
"s@	c #FAD2E6",
"t@	c #F8E2ED",
"u@	c #FCF5F7",
"v@	c #FCFBFA",
"w@	c #FBE7E4",
"x@	c #F54436",
"y@	c #F7453A",
"z@	c #FAEBE3",
"A@	c #FCF1F6",
"B@	c #FBDFED",
"C@	c #FBD2E7",
"D@	c #FACFE6",
"E@	c #F8DEE9",
"F@	c #FCF3F7",
"G@	c #F7E3EF",
"H@	c #FCD3EA",
"I@	c #F9CFE4",
"J@	c #FCECF5",
"K@	c #FAFDFD",
"L@	c #F8BDB7",
"M@	c #F74238",
"N@	c #F33F31",
"O@	c #F7C1BB",
"P@	c #FAFDFC",
"Q@	c #FDFBFC",
"R@	c #FCE6F2",
"S@	c #FACEE5",
"T@	c #FBD1E7",
"U@	c #FDFCFD",
"V@	c #FDDFEE",
"W@	c #FEEAF6",
"X@	c #F9DCEA",
"Y@	c #FCFBFC",
"Z@	c #FAFCFA",
"`@	c #F8867D",
" #	c #F6564C",
".#	c #F44F44",
"+#	c #F78784",
"@#	c #FDF8FC",
"##	c #FADAE9",
"$#	c #FCECF7",
"%#	c #F8DEEB",
"&#	c #FBF2F1",
"*#	c #F34E45",
"=#	c #FCF11C",
"-#	c #FCF7F4",
";#	c #FDF8FA",
">#	c #FDF6F9",
",#	c #FCD9D7",
"'#	c #F53D31",
")#	c #F43D30",
"!#	c #FDE1DC",
"~#	c #FEFEFC",
"{#	c #FCF2F8",
"]#	c #F8D5E6",
"^#	c #F9D3E5",
"/#	c #FDEEF6",
"(#	c #F7C0BA",
"_#	c #F84639",
":#	c #F43F31",
"<#	c #F8C4C2",
"[#	c #FCF6FB",
"}#	c #FCF4FB",
"|#	c #FCE9F3",
"1#	c #FBD7EA",
"2#	c #FBDCEE",
"3#	c #FBDFEC",
"4#	c #F89C94",
"5#	c #F45144",
"6#	c #F74C40",
"7#	c #F8A6A2",
"8#	c #F9E8F3",
"9#	c #FAD5E9",
"0#	c #FDDFEF",
"a#	c #F8D7EB",
"b#	c #FBDAEB",
"c#	c #F8AA41",
"d#	c #F6564B",
"e#	c #F7847A",
"f#	c #FBFCFA",
"g#	c #FFF9FE",
"h#	c #FBDDED",
"i#	c #F9D4E6",
"j#	c #F8D3E6",
"k#	c #FADDEC",
"l#	c #FBD9E5",
"m#	c #F14C49",
"n#	c #FCE229",
"o#	c #FEF6F4",
"p#	c #FCFFFE",
"q#	c #FEFCFE",
"r#	c #FEFAFE",
"s#	c #FDFAFD",
"t#	c #FBFCFB",
"u#	c #FBE7E2",
"v#	c #F53F34",
"w#	c #F43C33",
"x#	c #FCEEEC",
"y#	c #FDFDFB",
"z#	c #FAD9D3",
"A#	c #F53A2E",
"B#	c #F13428",
"C#	c #FCE3DD",
"D#	c #FFFDFC",
"E#	c #F8C0BF",
"F#	c #F74333",
"G#	c #F43F2F",
"H#	c #FBCDC5",
"I#	c #F5B2AC",
"J#	c #F7372B",
"K#	c #F74537",
"L#	c #F54839",
"M#	c #F6483A",
"N#	c #F64A3B",
"O#	c #F44A3E",
"P#	c #F64C43",
"Q#	c #F74F47",
"R#	c #F85146",
"S#	c #F55246",
"T#	c #F75549",
"U#	c #F6554A",
"V#	c #F8574B",
"W#	c #F65449",
"X#	c #FABF3A",
"Y#	c #F79046",
"Z#	c #F66F4A",
"`#	c #F79146",
" $	c #F89146",
".$	c #F9AA41",
"+$	c #F89048",
"@$	c #F7554C",
"#$	c #F6554C",
"$$	c #F5574A",
"%$	c #F85148",
"&$	c #F45145",
"*$	c #F44B3C",
"=$	c #F53F2D",
"-$	c #F6C1B5",
";$	c #FCFDFE",
">$	c #F8F2EC",
",$	c #F9D4D2",
"'$	c #F8D0D0",
")$	c #FAD0D0",
"!$	c #F9D1D0",
"~$	c #FBD1D1",
"{$	c #FDCED0",
"]$	c #F9B7BE",
"^$	c #FAB8BC",
"/$	c #FACAC5",
"($	c #F9C1BD",
"_$	c #FABFBC",
":$	c #F9C0BD",
"<$	c #F8BBB8",
"[$	c #ECADAA",
"}$	c #E6ACA7",
"|$	c #EFB4AE",
"1$	c #F7BEBD",
"2$	c #FBBEBE",
"3$	c #F7A6B2",
"4$	c #F7ACB3",
"5$	c #F7BDBB",
"6$	c #F9BFBE",
"7$	c #FBC1C0",
"8$	c #FDC9C6",
"9$	c #FCCCC8",
"0$	c #FBD2CE",
"a$	c #FAD7D4",
"b$	c #F8F3F1",
"c$	c #F8D9EA",
"d$	c #FAE4F0",
"e$	c #FBFDFB",
"f$	c #FBE3F1",
"g$	c #FFFFFD",
"h$	c #F9DAEA",
"i$	c #FBE5F1",
"j$	c #FFFDFF",
"k$	c #FCFDFB",
"l$	c #FCDCED",
"m$	c #FAE3EF",
"n$	c #FAF7F9",
"o$	c #F8D7E8",
"p$	c #F8E0EB",
"q$	c #EFEFF0",
"r$	c #EAEAEA",
"s$	c #E7E7E7",
"t$	c #E3E4E4",
"u$	c #E3E4E3",
"v$	c #E3E3E3",
"w$	c #E3E4E2",
"x$	c #E5E5E5",
"y$	c #F8D6E7",
"z$	c #F2DBE8",
"A$	c #ECEDEE",
"B$	c #EFF0F0",
"C$	c #F4F5F4",
"D$	c #F8F8F8",
"E$	c #EEEEEE",
"F$	c #DBDCDC",
"G$	c #D0D2D1",
"H$	c #C6CAC8",
"I$	c #CAC3C6",
"J$	c #F8D1E4",
"K$	c #DFCAD3",
"L$	c #B9BCBE",
"M$	c #B0AFB0",
"N$	c #A8AAA9",
"O$	c #A7A8A8",
"P$	c #B8BAB9",
"Q$	c #C2C4C3",
"R$	c #C0C2C1",
"S$	c #C0C1C0",
"T$	c #C3C1C1",
"U$	c #F1D0E0",
"V$	c #E1CAD6",
"W$	c #BBBFBE",
"X$	c #B0B2B1",
"Y$	c #AAABAB",
"Z$	c #AAACAB",
"`$	c #BCBEBD",
" %	c #CECECE",
".%	c #DBDBDB",
"+%	c #E9E9E9",
"@%	c #F7F7F7",
"#%	c #FBFBFB",
"$%	c #CDCDCD",
"%%	c #C1C1C1",
"&%	c #BFC1C0",
"*%	c #B3B2B3",
"=%	c #7F727A",
"-%	c #453F42",
";%	c #212324",
">%	c #131414",
",%	c #080A09",
"'%	c #070908",
")%	c #363737",
"!%	c #B8B7B7",
"~%	c #7B7176",
"{%	c #4C4448",
"]%	c #222422",
"^%	c #141514",
"/%	c #060807",
"(%	c #2E2F2F",
"_%	c #B5B6B6",
":%	c #C0C0C0",
"<%	c #C5C5C5",
"[%	c #E4E4E4",
"}%	c #C2C2C2",
"|%	c #BCBCBC",
"1%	c #808080",
"2%	c #696969",
"3%	c #626262",
"4%	c #5D5E5D",
"5%	c #575958",
"6%	c #575857",
"7%	c #838584",
"8%	c #C1C3C2",
"9%	c #818382",
"0%	c #6A6C6B",
"a%	c #5B5D5C",
"b%	c #595959",
"c%	c #7E7E7E",
"d%	c #BDBDBD",
"e%	c #C3C3C3",
"f%	c #C7C7C7",
"g%	c #D6D6D6",
"h%	c #F2F2F2",
"i%	c #F1F1F1",
"j%	c #E1E1E1",
"k%	c #DDDDDD",
"l%	c #D5D5D5",
"m%	c #D0D0D0",
"n%	c #CBCDCC",
"o%	c #C8CAC9",
"p%	c #C4C6C5",
"q%	c #C7C9C8",
"r%	c #C5C7C6",
"s%	c #C6C8C7",
"t%	c #C9CBCA",
"u%	c #CCCECD",
"v%	c #CFD1D0",
"w%	c #D1D2D2",
"x%	c #D5D7D6",
"y%	c #DFDFDF",
"z%	c #EDEDED",
"A%	c #F6F6F6",
"B%	c #FCFDFD",
"                                                                                                                                ",
"                                                                                                                                ",
"                                                                                                                                ",
"                                                                                                                                ",
"                                                      . + @ # $ % &                                                             ",
"                                                      * = - ; > , '                                                             ",
"                                          ) ! )       ~ { ~ ~ ] ~ ^                   / / ) (                                   ",
"                                        _ : < [ $ } ( ~ ~ ~ ~ ~ ~ |     / ( & 1 % 2 3 4 ( % 5 6                                 ",
"                                        } 7 8 9 ~ 0 a b c ~ ~ ~ d e !   } f g h i j k l m m n o                                 ",
"                                        p q ~ ~ r ~ s t u ~ ~ ~ v w ~ ~ ~ x y z A B C D E F G H I J                             ",
"                                        K L ~ ~ ~ M l N ~ ~ ~ O P Q ~ ~ ~ ~ ~ ~ ~ ~ R ~ ~ ~ ~ S T U                             ",
"                                        V W ~ ~ ~ ~ X Y ~ Z `  .~ ~ ~ ..+.@.#.~ ~ ~ $.~ ~ ~ ~ ~ %.&.*.6 /                       ",
"                                        =.~ ~ ~ ~ ~ #.-.- ~ ~ ~ ~ ~ ~ ;.>.,.'.).~ ~ !.~ ~.{.~ ].^./.~ (._.                      ",
"                                        % :.~ ~ ~ ~ <.~ ~ ~ [.~ }.~ ~ ~ |.1.2.3.~ ~ 4.~ 5.6.~ 7.8.9.~ 0.(                       ",
"                                        & N a.b.c.d.~ ~ ~ e.f.g.h.; ~ i.j.k.l.~ ~ ~ ~ m.~ n.~ ~ ~ ~ ~.0./                       ",
"                                        o.& p.q.r.~ ~ ~ ~ s.t.u.v.w.~ ~ x.y.~ ~ ~ ~ ~ z.~ ~ ~ ~ ~ A.~ ( }                       ",
"                                        1 B.~ ~ ~ ~ ~ ~ ~ C.D.E.F.G.~ ~ ~ ~ ~ ~ ~ ~ ~ ~ H.~ ~ ~ I.J.K.^ )                       ",
"                                        0.L.M.~ ~ ~ ~ ~ ~ ~ N.O.}.~ ~ ~ ~ ~ ~ ~ ~ ~ ~ ~ ~ P.Q.R.S.T.} } )                       ",
"                                    &   U.V.~ ~ ~ ~ ~ ~ ~ ~ ~ ~ ~ ~ ~ ~ ~ ~ ~ ~ ~ ~ ~ ~ ~ ~ q.W.X.Y.% )                         ",
"                                      Z.~ O ~ ~ ~ ~ ~ ~ ~ ~ ~ ~ ~ ~ ~ ~ ~ ~ ~ ~ ~ ~ ~ ~ ~ `.;  +.+}                             ",
"                                    & ++~ ~ ~ ~ ~ ~ ~ ~ ~ ~ ~ ~ ~ ~ ~ ~ ~ ~ ~ ~ ~ ~ ~ ~ @+#+$+%+! &+                            ",
"                                    *+=+-+~ ~ ~ ~ ~ ~ ~ ~ ~ ~ ~ ~ ~ ~ ~ ~ ~ ~ ~ ~ ;+>+~ ,+'+& Z.                                ",
"                                    ! )+!+~ ~ ~ ~ ~ ~ ~ ~ ~ ~ ~ ~ ~ ~ ~ ~ ~ ~ ~ ~ ~+~ {+6 ]+  &                                 ",
"                                    / ^+/+~ ~ ~ ~ ~ ~ ~ ~ ~ ~ ~ ~ ~ ~ ~ ~ ~ ~ ~ ~ ~ (+_+/ %                                     ",
"                                    / :+<+~ ~ ~ ~ ~ ~ ~ ~ ~ ~ ~ ~ ~ ~ ~ ~ ~ ~ ~ ~ ~ [+~ }+_                                     ",
"                                    ( i |+~ ~ 1+~ ~ ~ ~ ~ ~ ~ ~ ~ ~ ~ ~ ~ ~ ~ 2+3+~ ~ ~ 4+5+                                    ",
"                                    0.6+D ~ ~ ~ ~ ~ ~ ~ ~ ~ 7+~ ~ ~ ~ ~ ~ ~ ~ 8+~ ~ ~ ~ Z._.                                    ",
"                                    &+9+0+~ ~ ~ ~ ~ ~ ~ ~ ~ a+b+~ ~ ~ ~ ~ ~ c+d+~ ~ ~ ~ e+!                                     ",
"                                    _.f+~ ~ ~ ~ ~ ~ ~ ~ ~ ~ ~ g+h+i+j+k+l+m+n+~ ~ ~ o+~ 4+*+                                    ",
"                                    ( } ~ p+~ ~ ~ ~ ~ ~ ~ ~ ~ ~ q+r+s+t+u+v+~ ~ ~ ~ w+x+& !                                     ",
"                                        y+z+~ ~ ~ ~ ~ ~ ~ ~ ~ ~ ~ ~ ~ ~ ~ ~ ~ ~ ~ A+B+_.                                        ",
"                                        6 C+D+~ ~ ~ ~ ~ ~ ~ ~ ~ ~ ~ ~ ~ ~ ~ ~ ~ ~ c E+1                                         ",
"                                        5 : F+G+~ ~ ~ ~ ~ ~ ~ ~ ~ ~ ~ ~ ~ ~ ~ H+I+J+K+1                                         ",
"                                        } L+M+N+O+u ~ ~ ~ ~ ~ ~ ~ ~ ~ ~ ~ ~ z.P+Q+R+f o.                                        ",
"                                    ) & S+T+U+~ V+W+X+Y+~ ~ ~ ~ ~ ~ ~ A Z+`+ @~ ~ .@+@K+}                                       ",
"                                    @@#@$@%@&@~ ~ ~ *@=@-@;@>@,@'@)@!@~@{@~ ~ ~ ~ ]@^@/@(@(                                     ",
"                      ! % _./ ( f+_@:@<@[@}@~ ~ ~ ~ ~ ~ ~ ~ ~ ~ ~ ~ ~ ~ ~ ~ ~ ~ ~ ~ |@1@2@3@4@J / ( Z.5 &                       ",
"                      5@6@7@8@9@0@a@b@c@d@e@~ ~ ~ ~ ~ ~ ~ ~ ~ ~ ~ ~ ~ ~ ~ ~ ~ ~ ~ ~ f@g@h@i@j@k@l@m@n@o@p@                      ",
"                      J q@6@r@s@t@u@v@w@x@~ ~ ~ ~ ~ ~ ~ ~ ~ ~ ~ ~ ~ ~ ~ ~ ~ ~ ~ ~ ~ ~ y@z@f A@B@C@D@E@F@&                       ",
"                      _ G@H@I@J@Z.& K@L@M@~ ~ ~ ~ ~ ~ ~ ~ ~ ~ ~ ~ ~ ~ ~ ~ ~ ~ ~ ~ ~ ~ N@O@P@& Q@R@S@T@U (                       ",
"                      U@V@W@X@Y@  & Z@`@ #~ ~ ~ ~ ~ ~ ~ ~ ~ ~ ~ ~ ~ ~ ~ ~ ~ ~ ~ ~ ~ ~ .#+#4+  } @###$#%#)                       ",
"                          & a _.o.} &#*#~ ~ ~ ~ ~ ~ ~ ~ ~ ~ ~ ~ ~ ~ ~ ~ ~ ~ ~ ~ ~ ~ ~ =#f@-#    & a                             ",
"                          & 0.;#>#_ ,#'#~ ~ ~ ~ ~ ~ ~ ~ ~ ~ ~ ~ ~ ~ ~ ~ ~ ~ ~ ~ ~ ~ ~ ~ )#!#      &                             ",
"                      ~#& _.{#]#^#/#(#_#~ ~ ~ ~ ~ ~ ~ ~ ~ ~ ~ ~ ~ ~ ~ ~ ~ ~ ~ ~ ~ ~ ~ ~ :#<#&+@@                                ",
"                      5 [#}#|#1#2#3#4#5#~ ~ ~ ~ ~ ~ ~ ~ ~ ~ ~ ~ ~ ~ ~ ~ ~ ~ ~ ~ ~ ~ ~ ~ 6#7#| &+                                ",
"                      ( 8#9#0#9#a#b#~ c#~ ~ ~ ~ ~ ~ ~ ~ ~ ~ ~ ~ ~ ~ ~ ~ ~ ~ ~ ~ ~ ~ ~ ~ d#e#f#K@                                ",
"                        g#h#i#j#k#l#m#~ ~ ~ ~ ~ ~ ~ ~ ~ ~ ~ ~ ~ ~ ~ ~ ~ ~ ~ ~ ~ ~ ~ ~ ~ n#~ o#}                                 ",
"                      ~#p#q#r#s#t#u#v#~ ~ ~ ~ ~ ~ ~ ~ ~ ~ ~ ~ ~ ~ ~ ~ ~ ~ ~ ~ ~ ~ ~ ~ ~ ~ w#x#5                                 ",
"                                y#z#A#~ ~ ~ ~ ~ ~ ~ ~ ~ ~ ~ ~ ~ ~ ~ ~ ~ ~ ~ ~ ~ ~ ~ ~ ~ ~ B#C#D#                                ",
"                                Y.E#F#~ ~ ~ ~ ~ ~ ~ ~ ~ ~ ~ ~ ~ ~ ~ ~ ~ ~ ~ ~ ~ ~ ~ ~ ~ ~ G#H#@@                                ",
"                                K@I#J#K#L#M#N#O#P#Q#R#S#T#U#V#W#X#Y#Z#`# $.$+$@$#$$$%$&$*$=$-$5                                 ",
"                                ;$>$,$'$)$!$~${$]$^$/$($_$:$<$[$}$|$1$2$3$4$5$6$6$7$8$9$0$a$b$$                                 ",
"                                ( } & ! (.(.4 &+c$d$( 1 1 1 1 1 0.0.e$a 7@f$( % %   ) / & _ ! g$                                ",
"                                              _ h$i$j$!             k$| l$m$(                                                   ",
"                                & &   &   & K+n$o$p$q$r$s$t$u$v$v$v$w$x$y$z$A$B$C$D$a &   & &                                   ",
"                                  & a E$F$G$H$I$J$K$L$M$N$O$P$Q$R$R$S$T$U$V$W$X$Y$Z$`$ %.%+%@%&                                 ",
"                                & #%$%%%S$R$&%*%=%-%;%>%,%'%)%P$R$R$R$!%~%{%]%^%/%'%(%_%%%:%<%[%                                ",
"                                & a s$ %}%%%:%|%1%2%3%4%5%6%7%&%8%8%R$`$9%0%4%a%6%b%c%d%e%f%g%h%                                ",
"                                Z.& & & D$i%s$j%k%l%m%n%o%p%q%r%p%p%s%r%t%u%v%w%x%y%s$z%A%a & &                                 ",
"                                    &           &   & Z.Z.Z.Z.B%B%B%Z.B%Z.6 &                                                   ",
"                                                                                                                                ",
"                                                                                                                                ",
"                                                                                                                                ",
"                                                                                                                                "};
